<svg width="749" height="366" viewBox="0 0 749 366" fill="none" xmlns="http://www.w3.org/2000/svg">
<path d="M150.285 198.279L168.367 191.964C169.338 191.64 170.364 191.964 171.012 192.719L182.724 207.562C184.128 209.289 186.988 208.318 186.88 206.105L186.287 187.376C186.287 186.404 186.88 185.487 187.852 185.163L205.933 178.848C208.038 178.092 207.984 175.123 205.825 174.53L187.42 169.294C186.448 169.024 185.801 168.161 185.747 167.189L185.153 148.46C185.099 146.247 182.184 145.437 180.889 147.219L170.094 162.709C169.5 163.519 168.475 163.897 167.503 163.627L149.098 158.391C146.939 157.798 145.212 160.226 146.615 161.954L158.328 176.797C158.921 177.552 158.975 178.632 158.436 179.495L147.641 194.986C146.345 196.821 148.234 199.142 150.339 198.387L150.285 198.279Z" fill="white"/>
<path d="M116.013 124.6C113.315 127.461 110.886 130.429 108.727 133.56C107.755 134.909 105.92 135.341 104.517 134.477L78.6088 118.555L45.7922 98.4222L25.4438 85.9001L13.4614 78.5596C12.0041 77.642 11.5183 75.7529 12.4898 74.2956C19.0747 64.3642 26.7931 54.8647 35.483 46.0668C36.6705 44.8254 38.7215 44.8254 39.9629 46.0668L49.8943 55.7823L66.9503 72.4604L94.3694 99.2319L116.013 120.39C117.201 121.577 117.201 123.413 116.013 124.6Z" fill="white"/>
<path d="M274.326 15.8945C275.838 16.7581 276.27 18.7012 275.352 20.1585L267.85 31.763L255.058 51.7337L234.493 83.7406L216.52 111.646L205.671 128.486L201.839 134.531C200.975 135.934 199.14 136.312 197.629 135.556C196.117 134.801 194.714 134.045 193.203 133.451C191.691 132.858 190.882 131.184 191.421 129.673L193.85 122.872L200.597 104.089L211.716 72.9997L224.454 37.2684L232.388 15.0848L237.084 2.07695C237.678 0.457706 239.513 -0.405891 241.132 0.18783C252.575 4.34388 263.694 9.52545 274.38 15.8945H274.326Z" fill="white"/>
<path d="M151.966 123.898C149.753 124.815 147.594 125.841 145.489 126.974C144.031 127.784 142.196 127.406 141.279 126.003L131.995 111.646L114.022 83.7406L93.4572 51.7337L80.6652 31.763L73.1627 20.1585C72.2452 18.7012 72.677 16.7581 74.1883 15.8945C84.8213 9.52545 95.994 4.34388 107.437 0.18783C109.056 -0.405891 110.891 0.457706 111.485 2.07695L116.181 15.0848L124.115 37.2684L136.853 72.9997L147.972 104.089L153.747 120.12C154.287 121.685 153.477 123.304 151.912 123.898H151.966Z" fill="white"/>
<path d="M177.333 129.74C178.629 129.848 179.87 128.876 180.032 127.581L180.896 120.024L182.785 103.346C183.001 101.673 181.705 100.107 179.978 99.9456C176.146 99.6757 172.368 99.6757 168.535 99.9456C166.808 100.054 165.513 101.619 165.729 103.346L167.672 120.024L168.535 127.581C168.697 128.93 169.885 129.848 171.234 129.74C172.745 129.632 174.904 129.578 177.387 129.74H177.333Z" fill="white"/>
<path d="M365.808 153.111C366.024 154.785 364.783 156.35 363.001 156.512L348.914 158.077L325.057 160.668L289.542 164.608C287.869 164.77 286.357 163.636 286.141 161.963C285.278 155.648 283.821 149.495 281.931 143.558C281.446 141.993 282.255 140.319 283.821 139.78L317.609 128.283L340.278 120.511L353.61 115.923C355.283 115.329 357.118 116.247 357.658 117.866C361.544 129.416 364.297 141.129 365.808 153.057V153.111Z" fill="white"/>
<path d="M127.417 164.33C126.985 165.895 126.608 167.461 126.338 169.08C126.068 170.699 124.611 171.833 122.937 171.617L115.651 170.807L95.4103 168.594L65.2384 165.302C63.5112 165.086 62.2158 163.575 62.4317 161.847C63.2953 155.64 64.6987 149.595 66.5878 143.766C67.1275 142.147 68.9627 141.283 70.6359 141.823L99.3504 151.646L118.565 158.231L125.474 160.552C127.039 161.092 127.849 162.711 127.417 164.276V164.33Z" fill="white"/>
<path d="M35.4342 308.478C26.6903 299.68 19.0259 290.181 12.441 280.25C11.4695 278.846 11.9552 276.903 13.4125 275.986L25.3409 268.645L45.7434 256.177L78.56 236.044L104.468 220.122C105.925 219.258 107.76 219.69 108.678 221.039C110.837 224.17 113.212 227.138 115.964 229.999C117.098 231.187 117.152 233.076 115.964 234.209L94.3206 255.367L66.9014 282.139L49.8455 298.817L39.9141 308.478C38.6727 309.666 36.6216 309.666 35.4342 308.478Z" fill="white"/>
<path d="M190.762 6.17797C192.489 6.3399 193.73 7.90516 193.569 9.57837L191.302 29.9268L187.308 64.5786C187.146 66.1978 185.634 67.3853 183.961 67.2233C180.777 66.9535 177.538 66.8455 174.3 66.8455C171.061 66.8455 167.877 66.9535 164.692 67.2773C163.019 67.4392 161.508 66.2518 161.292 64.6326L157.244 29.9808L154.977 9.68633C154.761 8.01311 156.056 6.44785 157.729 6.28593C163.181 5.74618 168.686 5.53027 174.3 5.53027C179.913 5.53027 185.364 5.74618 190.762 6.28593V6.17797Z" fill="white"/>
<path d="M300.982 95.7762C301.954 97.1795 301.468 99.1226 300.011 100.04L269.893 118.5L241.394 135.987L226.713 145.055C225.31 145.919 223.475 145.487 222.503 144.138C221.1 142.194 219.642 140.359 218.023 138.578C216.89 137.391 216.89 135.556 218.077 134.422L230.329 122.44L254.132 99.1766L279.284 74.6181C280.526 73.4307 282.577 73.4307 283.764 74.6181C290.295 81.257 295.963 88.3277 300.928 95.7222L300.982 95.7762Z" fill="white"/>
<path d="M252.744 165.455C253.014 167.128 251.718 168.693 249.991 168.909L232.881 170.798L225.541 171.608C223.867 171.77 222.41 170.636 222.14 169.017C221.87 167.398 221.492 165.887 221.061 164.375C220.629 162.864 221.438 161.191 223.004 160.651L229.966 158.276L246.159 152.717C247.832 152.123 249.667 153.041 250.153 154.66C251.286 158.222 252.15 161.838 252.69 165.509L252.744 165.455Z" fill="white"/>
<path d="M265.163 324.364C255.772 329.923 245.84 334.673 235.369 338.397C233.75 338.991 231.915 338.127 231.321 336.508L224.412 317.293L211.674 281.508L201.581 253.279C201.041 251.714 201.851 250.04 203.416 249.447C207.033 248.043 210.595 246.424 213.995 244.427C215.453 243.563 217.342 243.995 218.205 245.399L234.506 270.713L255.124 302.72L266.189 320.046C267.106 321.503 266.675 323.392 265.163 324.31V324.364Z" fill="white"/>
<path d="M301.031 258.778C296.065 266.226 290.344 273.297 283.813 279.936C282.626 281.177 280.575 281.177 279.333 279.936L230.378 232.114L218.126 220.132C216.939 218.998 216.939 217.163 218.072 215.976C219.691 214.194 221.203 212.359 222.552 210.416C223.523 209.067 225.359 208.635 226.762 209.499L241.443 218.566L269.942 236.054L300.113 254.514C301.571 255.431 302.057 257.32 301.085 258.778H301.031Z" fill="white"/>
<path d="M127.405 190.237C127.836 191.803 127.027 193.422 125.462 193.962L118.553 196.282L99.3378 202.867L67.6007 213.716L31.0058 226.184L11.3051 232.931C9.68585 233.471 7.85071 232.661 7.31096 231.042C3.91056 220.949 1.48169 210.424 0.0243753 199.575C-0.191523 197.902 1.0499 196.336 2.83106 196.121L23.5573 193.908L62.0413 189.59L95.4516 185.973L115.692 183.814L122.979 183.005C124.652 182.843 126.109 183.976 126.379 185.541C126.649 187.107 127.027 188.672 127.459 190.237H127.405Z" fill="white"/>
<path d="M177.769 234.815C179.496 234.707 181.061 236.002 181.223 237.676L183.113 254.408L186.837 287.062L191.263 324.683L193.907 348.054L195.473 361.709C195.689 363.383 194.393 364.948 192.666 365.11C180.414 366.297 168 366.297 155.801 365.11C154.074 364.948 152.833 363.383 152.995 361.709L154.56 348L157.205 324.683L161.631 287.008L165.355 254.408L167.298 237.676C167.514 236.002 169.025 234.761 170.752 234.869C173.343 234.977 174.908 235.031 177.823 234.869L177.769 234.815Z" fill="white"/>
<path d="M155.371 221.153C156.937 221.801 157.746 223.42 157.152 224.985L154.724 231.786L147.977 250.569L136.858 281.605L125.145 314.421C124.552 316.04 122.717 316.904 121.097 316.31C112.461 313.18 104.095 309.24 96.1071 304.49C94.6498 303.626 94.164 301.683 95.0815 300.226L114.027 270.81L131.946 242.959L142.849 226.119L146.681 220.073C147.545 218.67 149.38 218.292 150.891 219.048C152.403 219.804 153.806 220.505 155.317 221.153H155.371Z" fill="white"/>
<path d="M348.643 199.564C347.186 210.413 344.757 220.992 341.357 231.031C340.817 232.65 338.982 233.514 337.363 232.92L317.662 226.227L281.067 213.705L249.33 202.856L230.115 196.271L223.152 193.95C221.587 193.411 220.777 191.791 221.209 190.172C221.641 188.553 222.019 187.096 222.289 185.476C222.558 183.857 224.016 182.724 225.689 182.886L233.03 183.695L253.27 185.908L286.68 189.524L325.164 193.842L345.891 196.055C347.618 196.217 348.913 197.783 348.697 199.51L348.643 199.564Z" fill="white"/>
<path d="M456.147 122.153C453.61 123.179 450.749 123.665 447.511 123.665C444.272 123.665 441.627 123.179 439.199 122.045L467.481 93.5467C469.262 91.7655 469.478 88.8509 467.913 86.9078C465.97 84.425 463.649 82.374 461.004 80.7547C457.118 78.3798 452.476 77.1924 447.025 77.1924C441.573 77.1924 436.662 78.4338 432.29 80.9706C427.918 83.5074 424.464 86.9078 421.927 91.2258C419.39 95.5438 418.148 100.294 418.148 105.583C418.148 110.873 419.444 115.838 421.927 120.156C424.464 124.528 427.918 127.983 432.344 130.519C436.824 133.056 441.951 134.352 447.673 134.352C452.206 134.352 456.309 133.596 460.141 132.031C462.138 131.221 463.919 130.196 465.592 129.008C468.129 127.173 468.399 123.557 466.24 121.344L466.024 121.128C464.351 119.455 461.652 118.969 459.709 120.318C458.629 121.074 457.442 121.668 456.201 122.153H456.147ZM432.074 115.73C432.074 115.73 431.75 115.245 431.588 115.029C430.077 112.276 429.321 109.145 429.321 105.529C429.321 101.913 430.077 98.9982 431.588 96.2994C433.099 93.6007 435.15 91.4417 437.849 89.8764C440.548 88.3112 443.678 87.5555 447.295 87.5555C450.911 87.5555 453.772 88.2572 455.931 89.5526C456.416 89.8764 456.848 90.1463 457.226 90.4702L432.02 115.676L432.074 115.73Z" fill="white"/>
<path d="M481.74 55.7101V128.144C481.74 130.951 484.007 133.164 486.76 133.164H488.055C490.862 133.164 493.075 130.897 493.075 128.144V55.7101C493.075 52.9034 490.808 50.6904 488.055 50.6904H486.76C483.953 50.6904 481.74 52.9574 481.74 55.7101Z" fill="white"/>
<path d="M555.466 78.3258C552.336 78.3258 549.745 80.8627 549.745 84.0472V85.2346C548.018 83.0217 545.805 81.1865 543.268 79.8372C539.975 78.056 536.251 77.1924 532.041 77.1924C527.075 77.1924 522.542 78.4338 518.494 80.9706C514.499 83.5074 511.261 86.9618 508.94 91.2258C506.619 95.5977 505.432 100.455 505.432 105.799C505.432 111.142 506.565 116 508.94 120.318C511.261 124.636 514.499 128.037 518.494 130.573C522.542 133.11 527.076 134.352 532.149 134.352C536.305 134.352 540.029 133.488 543.322 131.707C545.913 130.357 548.072 128.576 549.745 126.363V127.497C549.745 130.627 552.282 133.218 555.466 133.218C558.597 133.218 561.188 130.681 561.188 127.497V84.0472C561.188 80.9166 558.651 78.3258 555.466 78.3258ZM545.913 118.645C542.89 121.991 538.896 123.611 533.984 123.611C530.692 123.611 527.777 122.855 525.24 121.29C522.704 119.778 520.707 117.673 519.249 114.975C517.792 112.276 517.09 109.199 517.09 105.637C517.09 102.075 517.792 99.1061 519.249 96.4074C520.707 93.7086 522.65 91.6576 525.186 90.0923C527.669 88.581 530.584 87.7714 533.876 87.7714C537.169 87.7714 540.137 88.5271 542.62 90.0923C545.103 91.6036 546.992 93.7086 548.395 96.4074C549.799 99.1061 550.5 102.183 550.5 105.745C550.5 110.927 548.989 115.245 545.913 118.591V118.645Z" fill="white"/>
<path d="M620.296 88.8509C618.245 85.0727 615.438 82.266 611.822 80.215C608.259 78.1639 603.995 77.1924 599.084 77.1924C594.172 77.1924 590.016 78.2179 586.345 80.2689C582.729 82.374 579.869 85.2346 577.872 88.9049C575.82 92.5752 574.795 96.8931 574.795 101.805V127.551C574.795 130.681 577.332 133.218 580.462 133.218C583.593 133.218 586.13 130.681 586.13 127.551V102.614C586.13 98.2425 587.263 94.7341 589.476 92.0894C591.689 89.4446 594.874 88.1492 599.03 88.1492C603.186 88.1492 606.424 89.4446 608.637 92.0894C610.85 94.7341 611.93 98.2965 611.93 102.614V217.095C611.93 220.225 614.466 222.762 617.597 222.762C620.727 222.762 623.264 220.225 623.264 217.095V101.805C623.264 96.8931 622.239 92.5752 620.188 88.9049L620.296 88.8509Z" fill="white"/>
<path d="M688.123 86.0974C685.964 83.6686 684.345 81.5096 683.211 79.6744C682.078 77.8933 681.538 75.6263 681.538 72.9276C681.538 69.959 682.618 67.5301 684.723 65.587C686.882 63.6439 689.58 62.6724 692.765 62.6724C695.733 62.6724 698.162 63.3741 700.213 64.8314C700.969 65.3711 701.671 65.9649 702.372 66.6665C704.531 68.6636 707.824 68.8795 710.037 66.9364C712.52 64.7234 712.52 60.8912 710.145 58.6243C709.713 58.2465 709.335 57.8687 708.849 57.4908C706.798 55.7097 704.423 54.3063 701.725 53.2808C699.026 52.2553 696.057 51.7695 692.711 51.7695C688.339 51.7695 684.453 52.6871 681.052 54.5762C677.652 56.4653 674.953 59.0021 673.01 62.1866C671.067 65.4251 670.042 69.0414 670.042 73.1435C670.042 76.5979 670.743 79.7284 672.2 82.697C672.47 83.2368 672.794 83.8305 673.118 84.4242C674.413 86.6372 673.604 89.4438 671.553 90.9551C669.286 92.6284 667.397 94.6254 665.885 96.8384C663.241 100.725 661.945 105.097 661.945 110.008C661.945 114.92 663.079 118.86 665.292 122.53C667.613 126.201 670.689 129.115 674.737 131.166C678.731 133.217 683.481 134.243 688.825 134.243C692.171 134.243 695.41 133.811 698.432 132.893C701.455 131.976 704.207 130.734 706.798 129.115C708.202 128.198 709.443 127.28 710.523 126.201L715.434 131.49C716.406 132.516 717.755 133.109 719.158 133.109H719.374C723.746 133.109 726.067 127.928 723.099 124.689L688.069 86.0434L688.123 86.0974ZM699.35 121.073C696.597 122.692 693.305 123.556 689.364 123.556C686.234 123.556 683.427 123.016 681.052 121.883C678.623 120.749 676.734 119.184 675.385 117.133C674.09 115.082 673.388 112.599 673.388 109.738C673.388 106.122 674.198 103.099 675.871 100.617C676.411 99.861 676.95 99.1593 677.598 98.4576C679.595 96.3526 682.995 96.4066 684.938 98.5656L703.074 118.158C701.994 119.238 700.753 120.209 699.296 121.127L699.35 121.073Z" fill="white"/>
<path d="M468.939 191.295V245C468.939 248.13 466.402 250.667 463.272 250.667C460.141 250.667 457.605 248.13 457.605 245V192.105C457.605 187.733 456.471 184.224 454.312 181.58C452.099 178.935 448.915 177.639 444.651 177.639C440.387 177.639 437.31 178.935 435.097 181.58C432.884 184.224 431.751 187.787 431.751 192.105V217.041C431.751 220.172 429.214 222.708 426.083 222.708C422.953 222.708 420.416 220.172 420.416 217.041V191.295C420.416 186.383 421.388 182.065 423.439 178.395C425.49 174.725 428.296 171.81 431.967 169.759C435.583 167.708 439.847 166.683 444.651 166.683C449.454 166.683 453.826 167.654 457.443 169.705C461.059 171.756 463.866 174.617 465.863 178.341C467.914 182.065 468.939 186.383 468.939 191.241V191.295Z" fill="white"/>
<path d="M528.305 174.987L507.741 219.786C506.931 221.567 505.15 222.701 503.153 222.701H502.937C500.94 222.701 499.159 221.567 498.349 219.732L477.839 174.933C476.327 171.587 478.756 167.809 482.427 167.809H483.83C485.827 167.809 487.662 168.996 488.472 170.831L501.696 201.327C502.289 202.73 504.286 202.73 504.88 201.327L518.104 170.831C518.914 168.996 520.695 167.809 522.746 167.809H523.771C527.442 167.809 529.87 171.641 528.359 174.933L528.305 174.987Z" fill="white"/>
<path d="M538.847 173.493V217.105C538.847 220.236 541.384 222.718 544.46 222.718C547.591 222.718 550.074 220.182 550.074 217.105V173.493C550.074 170.363 547.537 167.88 544.46 167.88C541.33 167.88 538.847 170.417 538.847 173.493ZM549.534 145.157C548.239 143.753 546.565 143.052 544.514 143.052C542.463 143.052 540.898 143.753 539.549 145.157C538.253 146.506 537.605 148.233 537.605 150.176C537.605 152.12 538.253 153.847 539.549 155.196C540.844 156.491 542.517 157.193 544.514 157.193C546.511 157.193 548.292 156.491 549.534 155.196C550.775 153.847 551.423 152.173 551.423 150.176C551.423 148.179 550.775 146.506 549.534 145.157Z" fill="white"/>
<path d="M594.444 193.623C592.232 192.436 589.857 191.464 587.482 190.708C585.053 189.953 582.732 189.251 580.465 188.603C578.252 187.956 576.417 187.146 575.014 186.283C573.61 185.365 572.855 183.962 572.855 182.234C572.855 180.615 573.61 179.374 575.176 178.456C576.687 177.539 578.846 177.107 581.599 177.107C584.351 177.107 586.834 177.593 588.993 178.618C589.911 179.05 590.828 179.59 591.638 180.183C593.581 181.695 596.334 181.425 598.115 179.698L598.439 179.374C600.598 177.269 600.436 173.706 598.115 171.817C596.711 170.684 595.146 169.712 593.473 168.957C590.127 167.445 586.24 166.636 581.976 166.636C577.712 166.636 574.312 167.283 571.343 168.633C568.375 169.928 566.108 171.871 564.489 174.3C562.869 176.783 562.06 179.698 562.06 183.098C562.06 186.498 562.761 189.089 564.165 191.086C565.514 193.137 567.295 194.757 569.562 195.944C571.775 197.131 574.15 198.103 576.579 198.751C579.062 199.452 581.383 200.1 583.596 200.802C585.809 201.503 587.644 202.367 588.993 203.393C590.342 204.472 591.098 205.875 591.098 207.71C591.098 209.546 590.288 211.003 588.669 211.974C587.05 213 584.729 213.486 581.653 213.486C578.576 213.486 575.553 212.946 572.963 211.759C571.667 211.165 570.48 210.463 569.346 209.6C567.295 208.034 564.381 208.412 562.546 210.247C560.494 212.298 560.494 215.807 562.761 217.588C563.463 218.128 564.219 218.667 564.974 219.207C567.295 220.718 569.886 221.852 572.693 222.661C575.499 223.471 578.414 223.849 581.383 223.849C587.644 223.849 592.663 222.338 596.388 219.261C600.112 216.238 601.947 212.028 601.947 206.847C601.947 203.5 601.245 200.694 599.788 198.643C598.385 196.484 596.55 194.865 594.337 193.623H594.444Z" fill="white"/>
<path d="M687.045 180.662C684.508 176.29 681.054 172.89 676.682 170.407C672.31 167.924 667.506 166.683 662.163 166.683C656.819 166.683 651.907 167.924 647.589 170.461C643.217 172.998 639.817 176.398 637.28 180.716C634.743 185.034 633.502 189.784 633.502 195.073C633.502 200.363 634.797 205.328 637.28 209.646C639.817 214.018 643.271 217.473 647.589 220.01C651.961 222.546 656.819 223.842 662.163 223.842C667.506 223.842 672.364 222.546 676.682 220.01C681.054 217.473 684.508 214.018 687.045 209.646C689.582 205.275 690.931 200.417 690.931 195.073C690.931 189.73 689.636 184.98 687.045 180.662ZM677.006 204.303C675.548 207.056 673.497 209.107 670.96 210.672C668.424 212.183 665.455 212.993 662.163 212.993C658.87 212.993 655.901 212.237 653.311 210.672C650.72 209.107 648.723 207.056 647.266 204.303C645.808 201.604 645.106 198.528 645.106 195.073C645.106 191.619 645.808 188.704 647.266 186.113C648.723 183.523 650.774 181.418 653.311 179.906C655.847 178.395 658.816 177.585 662.163 177.585C665.509 177.585 668.37 178.341 670.906 179.906C673.443 181.418 675.44 183.523 676.952 186.113C678.463 188.704 679.165 191.673 679.165 195.073C679.165 198.474 678.463 201.604 677.006 204.303Z" fill="white"/>
<path d="M744.979 178.389C742.928 174.611 740.121 171.804 736.559 169.753C732.943 167.702 728.679 166.73 723.767 166.73C718.855 166.73 714.699 167.756 711.083 169.807C707.413 171.912 704.606 174.773 702.555 178.443C700.504 182.113 699.479 186.431 699.479 191.343V217.035C699.479 220.165 702.015 222.756 705.2 222.756C708.33 222.756 710.921 220.219 710.921 217.035V192.153C710.921 187.781 712.055 184.272 714.268 181.627C716.481 178.983 719.665 177.687 723.821 177.687C727.977 177.687 731.216 178.983 733.429 181.627C735.642 184.272 736.721 187.835 736.721 192.153V217.035C736.721 220.165 739.258 222.756 742.442 222.756C745.573 222.756 748.164 220.219 748.164 217.035V191.343C748.164 186.431 747.138 182.113 745.087 178.443L744.979 178.389Z" fill="white"/>
<path d="M421.516 297.569V270.258H424.214V297.569H421.516Z" fill="white"/>
<path d="M434.965 297.569V270.258H437.664V297.569H434.965Z" fill="white"/>
<path d="M467.79 272.633H458.021V297.515H455.322V272.633H445.553V270.258H467.736V272.633H467.79Z" fill="white"/>
<path d="M509.871 270.258V297.569H507.226V284.831H490.98V297.569H488.281V270.258H490.98V282.402H507.226V270.258H509.871Z" fill="white"/>
<path d="M520.777 270.258L529.737 284.939L538.751 270.258H541.665L531.086 287.422V297.569H528.388V287.368L517.809 270.312H520.777V270.258Z" fill="white"/>
<path d="M549.555 297.569V270.258H558.838C561.753 270.258 564.182 270.852 566.125 272.093C568.068 273.334 569.525 274.954 570.497 277.005C571.468 279.056 571.954 281.377 571.954 283.859C571.954 286.612 571.414 289.041 570.335 291.092C569.255 293.143 567.744 294.708 565.801 295.842C563.858 296.975 561.537 297.515 558.838 297.515H549.555V297.569ZM569.255 283.913C569.255 281.754 568.878 279.811 568.068 278.138C567.258 276.465 566.071 275.116 564.56 274.144C562.994 273.172 561.105 272.687 558.892 272.687H552.307V295.194H558.892C561.159 295.194 563.048 294.708 564.614 293.683C566.179 292.657 567.312 291.308 568.122 289.635C568.932 287.908 569.309 286.018 569.309 283.913H569.255Z" fill="white"/>
<path d="M599.362 295.137V297.511H580.957V270.2H598.985V272.575H583.656V282.398H597.042V284.665H583.656V295.083H599.362V295.137Z" fill="white"/>
<path d="M608.269 297.569V270.258H619.819C621.007 270.258 622.086 270.528 623.058 271.013C624.029 271.499 624.893 272.147 625.595 273.011C626.35 273.82 626.89 274.792 627.268 275.763C627.646 276.789 627.862 277.814 627.862 278.84C627.862 280.135 627.592 281.377 627.106 282.51C626.62 283.644 625.919 284.615 625.001 285.425C624.083 286.234 623.004 286.72 621.762 286.99L628.455 297.515H625.433L619.01 287.422H610.914V297.515H608.215L608.269 297.569ZM610.968 285.101H619.927C621.007 285.101 621.924 284.831 622.734 284.237C623.544 283.644 624.137 282.888 624.569 281.916C625.001 280.945 625.217 279.919 625.217 278.84C625.217 277.76 624.947 276.735 624.461 275.763C623.975 274.846 623.274 274.09 622.464 273.496C621.655 272.903 620.683 272.633 619.657 272.633H610.968V285.101Z" fill="white"/>
<path d="M645.339 270.258H647.606L658.995 297.569H656.134L652.734 289.041H640.212L636.811 297.569H633.896L645.339 270.258ZM651.87 286.882L646.473 273.388L641.075 286.882H651.87Z" fill="white"/>
<path d="M687.391 290.495C687.391 291.844 687.067 293.085 686.365 294.111C685.663 295.19 684.746 296 683.558 296.594C682.371 297.188 681.129 297.511 679.726 297.511H666.826V270.2H679.996C681.291 270.2 682.371 270.524 683.342 271.226C684.26 271.927 685.016 272.791 685.501 273.816C685.987 274.896 686.257 275.975 686.257 277.163C686.257 278.512 685.933 279.754 685.232 280.941C684.53 282.075 683.558 282.938 682.317 283.532C683.882 284.018 685.124 284.827 686.041 286.123C686.959 287.364 687.391 288.821 687.391 290.495ZM669.525 272.575V282.668H678.917C679.834 282.668 680.59 282.452 681.291 281.967C681.993 281.481 682.533 280.887 682.965 280.078C683.396 279.322 683.558 278.512 683.558 277.595C683.558 276.677 683.342 275.814 682.965 275.058C682.587 274.302 682.047 273.709 681.399 273.223C680.752 272.737 679.996 272.521 679.132 272.521H669.525V272.575ZM684.692 290.009C684.692 289.091 684.476 288.228 684.098 287.472C683.666 286.716 683.127 286.069 682.425 285.583C681.723 285.097 680.914 284.827 679.996 284.827H669.525V295.19H679.726C680.644 295.19 681.507 294.921 682.209 294.435C682.965 293.949 683.558 293.301 683.99 292.546C684.422 291.79 684.692 290.926 684.692 290.009Z" fill="white"/>
<path d="M704.228 270.258H706.495L717.883 297.569H715.023L711.622 289.041H699.1L695.7 297.569H692.785L704.228 270.258ZM710.759 286.882L705.361 273.388L699.964 286.882H710.759Z" fill="white"/>
<path d="M725.666 297.569V270.258H734.95C737.864 270.258 740.293 270.852 742.236 272.093C744.179 273.334 745.637 274.954 746.608 277.005C747.58 279.056 748.066 281.377 748.066 283.859C748.066 286.612 747.526 289.041 746.446 291.092C745.367 293.143 743.856 294.708 741.912 295.842C739.969 296.975 737.648 297.515 734.95 297.515H725.666V297.569ZM745.367 283.913C745.367 281.754 744.989 279.811 744.179 278.138C743.37 276.465 742.182 275.116 740.671 274.144C739.106 273.172 737.217 272.687 735.004 272.687H728.419V295.194H735.004C737.271 295.194 739.16 294.708 740.725 293.683C742.29 292.657 743.424 291.308 744.233 289.635C745.043 287.908 745.421 286.018 745.421 283.913H745.367Z" fill="white"/>
</svg>
