<svg width="5305" height="1009" viewBox="0 0 5305 1009" fill="none" xmlns="http://www.w3.org/2000/svg">
<g filter="url(#filter0_di_6_427)">
<mask id="mask0_6_427" style="mask-type:alpha" maskUnits="userSpaceOnUse" x="46" y="42" width="5213" height="917">
<path d="M196.288 752.931C197.289 759.958 199.29 766.985 203.292 775.016C219.302 807.14 283.34 847.294 269.332 930.614C290.344 910.537 377.396 832.236 377.396 783.047C377.396 718.8 347.378 665.596 347.378 609.38C347.378 543.125 433.429 520.036 465.448 512.006L469.45 520.036C444.436 527.063 423.423 566.214 423.423 599.341C423.423 651.542 460.445 714.785 460.445 750.924C460.445 841.271 319.361 906.522 261.327 958.722H257.325C270.332 908.529 70.2135 781.039 46.1992 766.985V759.958C66.2111 774.012 96.2289 771.001 96.2289 714.785V232.933C96.2289 176.717 66.2111 173.706 46.1992 187.76V180.733C67.2117 167.682 206.294 64.2851 231.309 61.2735V80.3468C201.291 73.3198 196.288 85.3661 196.288 130.54C264.329 101.428 352.381 67.2966 378.396 67.2966C416.419 67.2966 439.433 110.463 451.44 154.632L445.436 158.648C432.429 140.578 413.417 131.544 389.403 131.544C355.383 131.544 263.328 164.671 196.288 196.794V421.658L387.402 278.107V307.219C357.384 298.184 352.381 339.342 352.381 402.585C324.364 402.585 254.323 451.774 226.306 516.021H223.304C222.304 474.863 210.297 450.77 196.288 443.743V752.931Z" fill="white"/>
<path d="M639.911 752.931C640.912 759.958 642.913 766.985 646.915 775.016C662.925 807.14 726.963 847.294 712.954 930.614C733.967 910.537 821.019 832.236 821.019 783.047C821.019 718.8 791.001 665.596 791.001 609.38C791.001 543.125 877.052 520.036 909.071 512.006L913.073 520.036C888.058 527.063 867.046 566.214 867.046 599.341C867.046 651.542 904.068 714.785 904.068 750.924C904.068 841.271 762.984 906.522 704.95 958.722H700.947C713.955 908.529 513.836 781.039 489.822 766.985V759.958C509.834 774.012 539.852 771.001 539.852 714.785V232.933C539.852 176.717 509.834 173.706 489.822 187.76V180.733C510.834 167.682 649.917 64.2851 674.932 61.2735V80.3468C644.914 73.3198 639.911 85.3661 639.911 133.551V752.931Z" fill="white"/>
<path d="M933.445 180.733C954.457 167.682 1093.54 64.2851 1118.55 61.2735V80.3468C1088.54 73.3198 1083.53 85.3661 1083.53 128.532C1145.57 100.424 1226.62 67.2966 1250.63 67.2966C1285.65 67.2966 1353.69 80.3468 1353.69 193.783V714.785C1353.69 771.001 1368.7 782.043 1388.71 767.989V775.016C1364.7 788.066 1219.61 902.506 1192.6 905.518V886.444C1222.62 893.471 1252.63 863.356 1253.63 815.171L1251.63 364.439C1241.63 379.496 1239.63 411.62 1239.63 452.778C1211.61 452.778 1141.57 501.967 1113.55 566.214H1110.55C1109.55 525.056 1097.54 500.963 1083.53 493.936V782.043C1083.53 868.375 1118.55 921.58 1156.58 921.58V940.653C1129.56 937.641 957.459 780.036 933.445 766.985V759.958C953.457 774.012 983.474 771.001 983.474 714.785V232.933C983.474 176.717 953.457 173.706 933.445 187.76V180.733ZM1083.53 471.851L1251.63 345.365L1250.63 178.725C1249.63 157.644 1245.63 131.544 1230.62 131.544C1210.61 131.544 1140.57 160.655 1083.53 191.775V471.851Z" fill="white"/>
<path d="M1408.34 759.958C1428.35 774.012 1458.37 771.001 1458.37 714.785V232.933C1458.37 176.717 1428.35 173.706 1408.34 187.76V180.733C1429.35 167.682 1568.43 64.2851 1593.45 61.2735V80.3468C1563.43 73.3198 1558.43 85.3661 1558.43 129.536C1595.45 162.663 1667.49 291.157 1728.53 421.658V232.933C1728.53 176.717 1698.51 173.706 1678.5 187.76V180.733C1702.51 167.682 1836.59 64.2851 1863.61 61.2735V80.3468C1833.59 73.3198 1828.59 85.3661 1828.59 133.551V714.785C1828.59 771.001 1843.59 782.043 1863.61 767.989V775.016C1839.59 788.066 1694.51 902.506 1667.49 905.518V886.444C1697.51 893.471 1728.53 862.352 1728.53 814.167V727.835C1728.53 609.38 1612.46 255.018 1558.43 202.817V782.043C1558.43 868.375 1593.45 921.58 1631.47 921.58V940.653C1604.45 937.641 1432.35 780.036 1408.34 766.985V759.958Z" fill="white"/>
<path d="M1933.26 750.924V495.944L2009.3 457.797C1964.28 403.589 1933.26 358.415 1933.26 330.307V294.168C1933.26 237.952 1903.24 234.941 1883.23 248.995V241.968C1907.24 227.914 2092.35 92.3931 2079.34 42.2002H2083.35C2141.38 94.4008 2288.47 159.652 2288.47 249.999V280.114L2188.41 330.307V233.937C2188.41 151.621 2113.36 91.3892 2091.35 71.3121C2108.36 157.644 2056.33 209.844 2040.32 241.968C2032.32 258.03 2033.32 268.068 2033.32 277.103V300.192C2033.32 347.373 2109.36 432.701 2194.41 521.04V471.851C2194.41 423.666 2189.41 411.62 2159.39 418.647V399.574C2186.41 402.585 2320.49 505.982 2344.5 519.033V526.06C2324.49 512.006 2294.47 515.017 2294.47 571.233V624.438C2367.51 701.735 2427.55 771.001 2427.55 811.155L2327.49 841.271C2327.49 823.201 2308.48 794.09 2279.46 757.951C2238.44 831.232 2116.37 916.56 2127.37 958.722H2123.37C2065.34 906.522 1933.26 841.271 1933.26 750.924ZM2033.32 766.985C2033.32 850.306 2094.35 910.537 2116.37 930.614C2102.36 845.286 2170.4 799.109 2186.41 766.985C2196.41 747.912 2193.41 740.885 2193.41 731.85V659.573C2140.38 602.353 2082.35 543.125 2033.32 486.909V766.985Z" fill="white"/>
<path d="M2448.02 759.958C2468.03 774.012 2498.05 771.001 2498.05 714.785V232.933C2498.05 176.717 2468.03 173.706 2448.02 187.76V180.733C2469.03 167.682 2608.11 64.2851 2633.13 61.2735V80.3468C2603.11 73.3198 2598.1 85.3661 2598.1 129.536C2635.13 162.663 2707.17 291.157 2768.21 421.658V232.933C2768.21 176.717 2738.19 173.706 2718.18 187.76V180.733C2742.19 167.682 2876.27 64.2851 2903.29 61.2735V80.3468C2873.27 73.3198 2868.27 85.3661 2868.27 133.551V714.785C2868.27 771.001 2883.27 782.043 2903.29 767.989V775.016C2879.27 788.066 2734.19 902.506 2707.17 905.518V886.444C2737.19 893.471 2768.21 862.352 2768.21 814.167V727.835C2768.21 609.38 2652.14 255.018 2598.1 202.817V782.043C2598.1 868.375 2633.13 921.58 2671.15 921.58V940.653C2644.13 937.641 2472.03 780.036 2448.02 766.985V759.958Z" fill="white"/>
<path d="M3393.19 187.76C3373.17 173.706 3343.16 176.717 3343.16 232.933V746.908C3337.15 834.244 3200.07 907.526 3143.04 958.722H3139.04C3152.04 908.529 2946.92 781.039 2922.91 766.985V759.958C2942.92 774.012 2972.94 771.001 2972.94 714.785V232.933C2972.94 176.717 2942.92 173.706 2922.91 187.76V180.733C2946.92 167.682 3081 64.2851 3108.02 61.2735V80.3468C3078 73.3198 3073 85.3661 3073 133.551V747.912C3074 752.931 3076 758.955 3080 766.985C3096.01 799.109 3164.05 845.286 3150.04 930.614C3171.05 911.541 3243.1 849.302 3243.1 766.985V133.551C3243.1 85.3661 3238.09 73.3198 3208.08 80.3468V61.2735C3233.09 64.2851 3372.17 167.682 3393.19 180.733V187.76Z" fill="white"/>
<path d="M3613.55 766.985C3589.54 780.036 3455.46 883.433 3428.44 886.444V867.371C3458.46 874.398 3463.46 862.352 3463.46 814.167V232.933C3463.46 176.717 3433.44 173.706 3413.43 187.76V180.733C3437.45 167.682 3571.53 64.2851 3598.54 61.2735V80.3468C3568.52 73.3198 3563.52 85.3661 3563.52 133.551V714.785C3563.52 771.001 3593.54 774.012 3613.55 759.958V766.985Z" fill="white"/>
<path d="M3938.47 574.245C3938.47 492.932 3683.32 459.805 3683.32 360.423V294.168C3683.32 237.952 3653.3 234.941 3633.29 248.995V241.968C3657.3 227.914 3842.41 92.3931 3829.41 42.2002H3833.41C3891.44 94.4008 4038.53 159.652 4038.53 249.999V280.114L3938.47 330.307V233.937C3938.47 151.621 3863.43 91.3892 3841.41 71.3121C3858.42 157.644 3806.39 209.844 3790.38 241.968C3782.38 258.03 3783.38 268.068 3783.38 277.103V330.307C3783.38 424.67 4038.53 441.736 4038.53 544.129V714.785C4038.53 771.001 4068.55 774.012 4088.56 759.958V766.985C4064.55 781.039 3864.43 908.529 3877.43 958.722H3873.43C3815.4 906.522 3683.32 841.271 3683.32 750.924V615.403L3783.38 565.21V766.985C3783.38 849.302 3844.41 910.537 3866.43 930.614C3851.42 845.286 3915.46 799.109 3931.47 766.985C3941.47 747.912 3938.47 740.885 3938.47 731.85V574.245Z" fill="white"/>
<path d="M4308.3 766.985C4284.29 780.036 4150.21 883.433 4123.19 886.444V867.371C4153.21 874.398 4158.21 862.352 4158.21 814.167V232.933C4158.21 176.717 4128.19 173.706 4108.18 187.76V180.733C4132.2 167.682 4266.27 64.2851 4293.29 61.2735V80.3468C4263.27 73.3198 4258.27 85.3661 4258.27 133.551V714.785C4258.27 771.001 4288.29 774.012 4308.3 759.958V766.985Z" fill="white"/>
<path d="M4733.28 714.785C4733.28 771.001 4763.3 774.012 4783.31 759.958V766.985C4759.29 781.039 4559.17 908.529 4572.18 958.722H4568.18C4510.15 906.522 4378.07 841.271 4378.07 750.924V294.168C4378.07 237.952 4348.05 234.941 4328.04 248.995V241.968C4352.05 227.914 4537.16 92.3931 4524.15 42.2002H4528.16C4586.19 94.4008 4732.28 159.652 4733.28 248.995V714.785ZM4633.22 233.937C4633.22 151.621 4558.17 91.3892 4536.16 71.3121C4553.17 157.644 4501.14 209.844 4485.13 241.968C4479.13 254.014 4478.13 262.045 4478.13 268.068V766.985C4478.13 849.302 4539.16 910.537 4561.18 930.614C4546.17 845.286 4610.21 799.109 4626.21 766.985C4630.22 758.955 4632.22 752.931 4633.22 747.912V233.937Z" fill="white"/>
<path d="M4802.93 759.958C4822.94 774.012 4852.96 771.001 4852.96 714.785V232.933C4852.96 176.717 4822.94 173.706 4802.93 187.76V180.733C4823.94 167.682 4963.02 64.2851 4988.04 61.2735V80.3468C4958.02 73.3198 4953.02 85.3661 4953.02 129.536C4990.04 162.663 5062.08 291.157 5123.12 421.658V232.933C5123.12 176.717 5093.1 173.706 5073.09 187.76V180.733C5097.1 167.682 5231.18 64.2851 5258.2 61.2735V80.3468C5228.18 73.3198 5223.18 85.3661 5223.18 133.551V714.785C5223.18 771.001 5238.19 782.043 5258.2 767.989V775.016C5234.19 788.066 5089.1 902.506 5062.08 905.518V886.444C5092.1 893.471 5123.12 862.352 5123.12 814.167V727.835C5123.12 609.38 5007.05 255.018 4953.02 202.817V782.043C4953.02 868.375 4988.04 921.58 5026.06 921.58V940.653C4999.05 937.641 4826.94 780.036 4802.93 766.985V759.958Z" fill="white"/>
</mask>
<g mask="url(#mask0_6_427)">
<g filter="url(#filter1_n_6_427)">
<path d="M-176.254 -708.386H5721.09V1808.39H-176.254V-708.386Z" fill="url(#paint0_linear_6_427)"/>
</g>
<mask id="mask1_6_427" style="mask-type:alpha" maskUnits="userSpaceOnUse" x="46" y="39" width="5213" height="917">
<path d="M196.288 750.076C197.289 757.103 199.29 764.13 203.292 772.161C219.302 804.284 283.34 844.439 269.332 927.759C290.344 907.682 377.396 829.381 377.396 780.192C377.396 715.945 347.378 662.74 347.378 606.524C347.378 540.27 433.429 517.181 465.448 509.15L469.45 517.181C444.436 524.208 423.423 563.358 423.423 596.486C423.423 648.686 460.445 711.929 460.445 748.068C460.445 838.415 319.361 903.666 261.327 955.867H257.325C270.332 905.674 70.2135 778.184 46.1992 764.13V757.103C66.2111 771.157 96.2289 768.145 96.2289 711.929V230.078C96.2289 173.862 66.2111 170.85 46.1992 184.904V177.877C67.2117 164.827 206.294 61.4296 231.309 58.418V77.4913C201.291 70.4643 196.288 82.5106 196.288 127.684C264.329 98.5723 352.381 64.4411 378.396 64.4411C416.419 64.4411 439.433 107.607 451.44 151.777L445.436 155.792C432.429 137.723 413.417 128.688 389.403 128.688C355.383 128.688 263.328 161.815 196.288 193.939V418.803L387.402 275.251V304.363C357.384 295.328 352.381 336.487 352.381 399.73C324.364 399.73 254.323 448.919 226.306 513.166H223.304C222.304 472.007 210.297 447.915 196.288 440.888V750.076Z" fill="white"/>
<path d="M639.911 750.076C640.912 757.103 642.913 764.13 646.915 772.161C662.925 804.284 726.963 844.439 712.954 927.759C733.967 907.682 821.019 829.381 821.019 780.192C821.019 715.945 791.001 662.74 791.001 606.524C791.001 540.27 877.052 517.181 909.071 509.15L913.073 517.181C888.058 524.208 867.046 563.358 867.046 596.486C867.046 648.686 904.068 711.929 904.068 748.068C904.068 838.415 762.984 903.666 704.95 955.867H700.947C713.955 905.674 513.836 778.184 489.822 764.13V757.103C509.834 771.157 539.852 768.145 539.852 711.929V230.078C539.852 173.862 509.834 170.85 489.822 184.904V177.877C510.834 164.827 649.917 61.4296 674.932 58.418V77.4913C644.914 70.4643 639.911 82.5106 639.911 130.696V750.076Z" fill="white"/>
<path d="M933.445 177.877C954.457 164.827 1093.54 61.4296 1118.55 58.418V77.4913C1088.54 70.4643 1083.53 82.5106 1083.53 125.676C1145.57 97.5684 1226.62 64.4411 1250.63 64.4411C1285.65 64.4411 1353.69 77.4913 1353.69 190.927V711.929C1353.69 768.145 1368.7 779.188 1388.71 765.134V772.161C1364.7 785.211 1219.61 899.651 1192.6 902.662V883.589C1222.62 890.616 1252.63 860.5 1253.63 812.315L1251.63 361.583C1241.63 376.641 1239.63 408.764 1239.63 449.923C1211.61 449.923 1141.57 499.112 1113.55 563.358H1110.55C1109.55 522.2 1097.54 498.108 1083.53 491.081V779.188C1083.53 865.52 1118.55 918.724 1156.58 918.724V937.797C1129.56 934.786 957.459 777.18 933.445 764.13V757.103C953.457 771.157 983.474 768.145 983.474 711.929V230.078C983.474 173.862 953.457 170.85 933.445 184.904V177.877ZM1083.53 468.996L1251.63 342.51L1250.63 175.869C1249.63 154.788 1245.63 128.688 1230.62 128.688C1210.61 128.688 1140.57 157.8 1083.53 188.92V468.996Z" fill="white"/>
<path d="M1408.34 757.103C1428.35 771.157 1458.37 768.145 1458.37 711.929V230.078C1458.37 173.862 1428.35 170.85 1408.34 184.904V177.877C1429.35 164.827 1568.43 61.4296 1593.45 58.418V77.4913C1563.43 70.4643 1558.43 82.5106 1558.43 126.68C1595.45 159.808 1667.49 288.301 1728.53 418.803V230.078C1728.53 173.862 1698.51 170.85 1678.5 184.904V177.877C1702.51 164.827 1836.59 61.4296 1863.61 58.418V77.4913C1833.59 70.4643 1828.59 82.5106 1828.59 130.696V711.929C1828.59 768.145 1843.59 779.188 1863.61 765.134V772.161C1839.59 785.211 1694.51 899.651 1667.49 902.662V883.589C1697.51 890.616 1728.53 859.496 1728.53 811.311V724.98C1728.53 606.524 1612.46 252.163 1558.43 199.962V779.188C1558.43 865.52 1593.45 918.724 1631.47 918.724V937.797C1604.45 934.786 1432.35 777.18 1408.34 764.13V757.103Z" fill="white"/>
<path d="M1933.26 748.068V493.088L2009.3 454.942C1964.28 400.734 1933.26 355.56 1933.26 327.452V291.313C1933.26 235.097 1903.24 232.085 1883.23 246.139V239.112C1907.24 225.058 2092.35 89.5376 2079.34 39.3447H2083.35C2141.38 91.5453 2288.47 156.796 2288.47 247.143V277.259L2188.41 327.452V231.082C2188.41 148.765 2113.36 88.5337 2091.35 68.4566C2108.36 154.788 2056.33 206.989 2040.32 239.112C2032.32 255.174 2033.32 265.213 2033.32 274.247V297.336C2033.32 344.517 2109.36 429.845 2194.41 518.185V468.996C2194.41 420.811 2189.41 408.764 2159.39 415.791V396.718C2186.41 399.73 2320.49 503.127 2344.5 516.177V523.204C2324.49 509.15 2294.47 512.162 2294.47 568.378V621.582C2367.51 698.879 2427.55 768.145 2427.55 808.3L2327.49 838.415C2327.49 820.346 2308.48 791.234 2279.46 755.095C2238.44 828.377 2116.37 913.705 2127.37 955.867H2123.37C2065.34 903.666 1933.26 838.415 1933.26 748.068ZM2033.32 764.13C2033.32 847.45 2094.35 907.682 2116.37 927.759C2102.36 842.431 2170.4 796.253 2186.41 764.13C2196.41 745.057 2193.41 738.03 2193.41 728.995V656.717C2140.38 599.497 2082.35 540.27 2033.32 484.054V764.13Z" fill="white"/>
<path d="M2448.02 757.103C2468.03 771.157 2498.05 768.145 2498.05 711.929V230.078C2498.05 173.862 2468.03 170.85 2448.02 184.904V177.877C2469.03 164.827 2608.11 61.4296 2633.13 58.418V77.4913C2603.11 70.4643 2598.1 82.5106 2598.1 126.68C2635.13 159.808 2707.17 288.301 2768.21 418.803V230.078C2768.21 173.862 2738.19 170.85 2718.18 184.904V177.877C2742.19 164.827 2876.27 61.4296 2903.29 58.418V77.4913C2873.27 70.4643 2868.27 82.5106 2868.27 130.696V711.929C2868.27 768.145 2883.27 779.188 2903.29 765.134V772.161C2879.27 785.211 2734.19 899.651 2707.17 902.662V883.589C2737.19 890.616 2768.21 859.496 2768.21 811.311V724.98C2768.21 606.524 2652.14 252.163 2598.1 199.962V779.188C2598.1 865.52 2633.13 918.724 2671.15 918.724V937.797C2644.13 934.786 2472.03 777.18 2448.02 764.13V757.103Z" fill="white"/>
<path d="M3393.19 184.904C3373.17 170.85 3343.16 173.862 3343.16 230.078V744.053C3337.15 831.388 3200.07 904.67 3143.04 955.867H3139.04C3152.04 905.674 2946.92 778.184 2922.91 764.13V757.103C2942.92 771.157 2972.94 768.145 2972.94 711.929V230.078C2972.94 173.862 2942.92 170.85 2922.91 184.904V177.877C2946.92 164.827 3081 61.4296 3108.02 58.418V77.4913C3078 70.4643 3073 82.5106 3073 130.696V745.057C3074 750.076 3076 756.099 3080 764.13C3096.01 796.253 3164.05 842.431 3150.04 927.759C3171.05 908.685 3243.1 846.446 3243.1 764.13V130.696C3243.1 82.5106 3238.09 70.4643 3208.08 77.4913V58.418C3233.09 61.4296 3372.17 164.827 3393.19 177.877V184.904Z" fill="white"/>
<path d="M3613.55 764.13C3589.54 777.18 3455.46 880.577 3428.44 883.589V864.516C3458.46 871.543 3463.46 859.496 3463.46 811.311V230.078C3463.46 173.862 3433.44 170.85 3413.43 184.904V177.877C3437.45 164.827 3571.53 61.4296 3598.54 58.418V77.4913C3568.52 70.4643 3563.52 82.5106 3563.52 130.696V711.929C3563.52 768.145 3593.54 771.157 3613.55 757.103V764.13Z" fill="white"/>
<path d="M3938.47 571.389C3938.47 490.077 3683.32 456.95 3683.32 357.568V291.313C3683.32 235.097 3653.3 232.085 3633.29 246.139V239.112C3657.3 225.058 3842.41 89.5376 3829.41 39.3447H3833.41C3891.44 91.5453 4038.53 156.796 4038.53 247.143V277.259L3938.47 327.452V231.082C3938.47 148.765 3863.43 88.5337 3841.41 68.4566C3858.42 154.788 3806.39 206.989 3790.38 239.112C3782.38 255.174 3783.38 265.213 3783.38 274.247V327.452C3783.38 421.815 4038.53 438.88 4038.53 541.274V711.929C4038.53 768.145 4068.55 771.157 4088.56 757.103V764.13C4064.55 778.184 3864.43 905.674 3877.43 955.867H3873.43C3815.4 903.666 3683.32 838.415 3683.32 748.068V612.547L3783.38 562.355V764.13C3783.38 846.446 3844.41 907.682 3866.43 927.759C3851.42 842.431 3915.46 796.253 3931.47 764.13C3941.47 745.057 3938.47 738.03 3938.47 728.995V571.389Z" fill="white"/>
<path d="M4308.3 764.13C4284.29 777.18 4150.21 880.577 4123.19 883.589V864.516C4153.21 871.543 4158.21 859.496 4158.21 811.311V230.078C4158.21 173.862 4128.19 170.85 4108.18 184.904V177.877C4132.2 164.827 4266.27 61.4296 4293.29 58.418V77.4913C4263.27 70.4643 4258.27 82.5106 4258.27 130.696V711.929C4258.27 768.145 4288.29 771.157 4308.3 757.103V764.13Z" fill="white"/>
<path d="M4733.28 711.929C4733.28 768.145 4763.3 771.157 4783.31 757.103V764.13C4759.29 778.184 4559.17 905.674 4572.18 955.867H4568.18C4510.15 903.666 4378.07 838.415 4378.07 748.068V291.313C4378.07 235.097 4348.05 232.085 4328.04 246.139V239.112C4352.05 225.058 4537.16 89.5376 4524.15 39.3447H4528.16C4586.19 91.5453 4732.28 156.796 4733.28 246.139V711.929ZM4633.22 231.082C4633.22 148.765 4558.17 88.5337 4536.16 68.4566C4553.17 154.788 4501.14 206.989 4485.13 239.112C4479.13 251.159 4478.13 259.19 4478.13 265.213V764.13C4478.13 846.446 4539.16 907.682 4561.18 927.759C4546.17 842.431 4610.21 796.253 4626.21 764.13C4630.22 756.099 4632.22 750.076 4633.22 745.057V231.082Z" fill="white"/>
<path d="M4802.93 757.103C4822.94 771.157 4852.96 768.145 4852.96 711.929V230.078C4852.96 173.862 4822.94 170.85 4802.93 184.904V177.877C4823.94 164.827 4963.02 61.4296 4988.04 58.418V77.4913C4958.02 70.4643 4953.02 82.5106 4953.02 126.68C4990.04 159.808 5062.08 288.301 5123.12 418.803V230.078C5123.12 173.862 5093.1 170.85 5073.09 184.904V177.877C5097.1 164.827 5231.18 61.4296 5258.2 58.418V77.4913C5228.18 70.4643 5223.18 82.5106 5223.18 130.696V711.929C5223.18 768.145 5238.19 779.188 5258.2 765.134V772.161C5234.19 785.211 5089.1 899.651 5062.08 902.662V883.589C5092.1 890.616 5123.12 859.496 5123.12 811.311V724.98C5123.12 606.524 5007.05 252.163 4953.02 199.962V779.188C4953.02 865.52 4988.04 918.724 5026.06 918.724V937.797C4999.05 934.786 4826.94 777.18 4802.93 764.13V757.103Z" fill="white"/>
</mask>
<g mask="url(#mask1_6_427)">
<g filter="url(#filter2_n_6_427)">
<path d="M60.8535 -713.144H5888.01V1742.74H60.8535V-713.144Z" fill="url(#paint1_linear_6_427)" fill-opacity="0.43"/>
</g>
</g>
</g>
</g>
<defs>
<filter id="filter0_di_6_427" x="-0.000782013" y="0.00019455" width="5304.4" height="1008.92" filterUnits="userSpaceOnUse" color-interpolation-filters="sRGB">
<feFlood flood-opacity="0" result="BackgroundImageFix"/>
<feColorMatrix in="SourceAlpha" type="matrix" values="0 0 0 0 0 0 0 0 0 0 0 0 0 0 0 0 0 0 127 0" result="hardAlpha"/>
<feOffset dy="4"/>
<feGaussianBlur stdDeviation="23.1"/>
<feComposite in2="hardAlpha" operator="out"/>
<feColorMatrix type="matrix" values="0 0 0 0 0 0 0 0 0 0 0 0 0 0 0 0 0 0 1 0"/>
<feBlend mode="normal" in2="BackgroundImageFix" result="effect1_dropShadow_6_427"/>
<feBlend mode="normal" in="SourceGraphic" in2="effect1_dropShadow_6_427" result="shape"/>
<feColorMatrix in="SourceAlpha" type="matrix" values="0 0 0 0 0 0 0 0 0 0 0 0 0 0 0 0 0 0 127 0" result="hardAlpha"/>
<feOffset dx="-5" dy="14"/>
<feGaussianBlur stdDeviation="2"/>
<feComposite in2="hardAlpha" operator="arithmetic" k2="-1" k3="1"/>
<feColorMatrix type="matrix" values="0 0 0 0 1 0 0 0 0 1 0 0 0 0 1 0 0 0 1 0"/>
<feBlend mode="normal" in2="shape" result="effect2_innerShadow_6_427"/>
</filter>
<filter id="filter1_n_6_427" x="-176.254" y="-708.386" width="5897.34" height="2516.78" filterUnits="userSpaceOnUse" color-interpolation-filters="sRGB">
<feFlood flood-opacity="0" result="BackgroundImageFix"/>
<feBlend mode="normal" in="SourceGraphic" in2="BackgroundImageFix" result="shape"/>
<feTurbulence type="fractalNoise" baseFrequency="0.90909087657928467 0.90909087657928467" stitchTiles="stitch" numOctaves="3" result="noise" seed="2494" />
<feColorMatrix in="noise" type="luminanceToAlpha" result="alphaNoise" />
<feComponentTransfer in="alphaNoise" result="coloredNoise1">
<feFuncA type="discrete" tableValues="1 1 1 1 1 1 1 1 1 1 1 1 1 1 1 1 1 1 1 1 1 1 1 1 1 1 1 1 1 1 1 1 1 1 1 1 1 1 1 1 1 1 1 1 1 1 1 1 1 1 1 0 0 0 0 0 0 0 0 0 0 0 0 0 0 0 0 0 0 0 0 0 0 0 0 0 0 0 0 0 0 0 0 0 0 0 0 0 0 0 0 0 0 0 0 0 0 0 0 0 "/>
</feComponentTransfer>
<feComposite operator="in" in2="shape" in="coloredNoise1" result="noise1Clipped" />
<feFlood flood-color="rgba(0, 0, 0, 0.47)" result="color1Flood" />
<feComposite operator="in" in2="noise1Clipped" in="color1Flood" result="color1" />
<feMerge result="effect1_noise_6_427">
<feMergeNode in="shape" />
<feMergeNode in="color1" />
</feMerge>
</filter>
<filter id="filter2_n_6_427" x="60.8535" y="-713.144" width="5827.16" height="2455.88" filterUnits="userSpaceOnUse" color-interpolation-filters="sRGB">
<feFlood flood-opacity="0" result="BackgroundImageFix"/>
<feBlend mode="normal" in="SourceGraphic" in2="BackgroundImageFix" result="shape"/>
<feTurbulence type="fractalNoise" baseFrequency="0.90909087657928467 0.90909087657928467" stitchTiles="stitch" numOctaves="3" result="noise" seed="2494" />
<feColorMatrix in="noise" type="luminanceToAlpha" result="alphaNoise" />
<feComponentTransfer in="alphaNoise" result="coloredNoise1">
<feFuncA type="discrete" tableValues="1 1 1 1 1 1 1 1 1 1 1 1 1 1 1 1 1 1 1 1 1 1 1 1 1 1 1 1 1 1 1 1 1 1 1 1 1 1 1 1 1 1 1 1 1 1 1 1 1 1 1 0 0 0 0 0 0 0 0 0 0 0 0 0 0 0 0 0 0 0 0 0 0 0 0 0 0 0 0 0 0 0 0 0 0 0 0 0 0 0 0 0 0 0 0 0 0 0 0 0 "/>
</feComponentTransfer>
<feComposite operator="in" in2="shape" in="coloredNoise1" result="noise1Clipped" />
<feFlood flood-color="rgba(0, 0, 0, 0.47)" result="color1Flood" />
<feComposite operator="in" in2="noise1Clipped" in="color1Flood" result="color1" />
<feMerge result="effect1_noise_6_427">
<feMergeNode in="shape" />
<feMergeNode in="color1" />
</feMerge>
</filter>
<linearGradient id="paint0_linear_6_427" x1="4921.31" y1="-548.956" x2="404.69" y2="2177.67" gradientUnits="userSpaceOnUse">
<stop offset="0.170367" stop-color="white"/>
<stop offset="0.412908" stop-color="#E7CCA1"/>
<stop offset="0.707345" stop-color="#E7CCA1"/>
<stop offset="0.873482" stop-color="white"/>
</linearGradient>
<linearGradient id="paint1_linear_6_427" x1="5004.91" y1="-651.591" x2="1059.3" y2="2709.02" gradientUnits="userSpaceOnUse">
<stop offset="0.0541129" stop-color="white"/>
<stop offset="0.370192" stop-color="#E7CCA1"/>
<stop offset="0.596154" stop-color="#E7CCA1"/>
<stop offset="1" stop-color="white"/>
</linearGradient>
</defs>
</svg>
