<svg width="256" height="1503" viewBox="0 0 256 1503" fill="none" xmlns="http://www.w3.org/2000/svg">
<path d="M162.817 75.264V53.248H74.2409V75.264H162.817ZM162.817 46.08V24.832H74.2409V46.08H162.817ZM89.8569 160.768V137.984H65.0249V160.768H89.8569ZM89.8569 130.816V108.8H65.0249V130.816H89.8569ZM89.8569 191.232V167.936H65.0249V193.28L89.8569 191.232ZM167.425 8.96001C171.265 4.60802 174.593 1.52588e-05 176.641 1.52588e-05C179.713 1.52588e-05 208.129 21.248 208.129 25.088C206.593 27.136 203.521 29.696 198.401 30.72V48.384C198.913 66.048 199.169 71.936 199.937 82.176C198.145 85.248 180.225 90.88 168.961 90.88H162.817V82.432H74.2409V86.528C74.2409 89.856 58.6249 97.536 44.2889 97.536C39.4249 97.536 37.3769 94.976 37.3769 92.416C38.4009 76.544 38.9129 68.352 39.4249 44.288V10.24C39.4249 7.68001 39.4249 4.86401 39.1689 1.79201L76.2889 17.664H160.257L167.425 8.96001ZM89.8569 197.888C75.0089 205.824 54.7849 215.808 26.1129 228.608C24.3209 231.936 21.7609 234.24 18.6889 234.752L2.81688 197.632L31.4889 195.84V108.8H22.7849C17.6649 109.056 12.8009 110.336 7.93688 112.384L1.28088 99.584C12.5449 100.864 23.8089 101.376 35.3289 101.632H187.649L195.841 89.088C200.193 82.688 204.033 76.288 206.081 76.288C209.153 76.288 236.801 100.864 236.801 104.704C236.033 107.52 233.217 108.8 229.633 108.8H123.393V174.08C123.905 204.8 124.417 215.04 125.441 234.24C123.393 237.312 113.409 243.456 96.0009 243.456C89.8569 243.456 88.3209 240.896 88.3209 238.336C89.0889 230.144 89.3449 225.792 89.8569 213.248V197.888ZM144.129 137.984C150.017 153.856 158.977 165.888 169.985 175.104C174.849 163.072 178.177 150.528 180.481 137.984H144.129ZM195.585 190.72C209.153 196.608 224.257 200.704 239.873 203.776L239.617 206.592C225.793 210.432 215.809 222.208 211.457 239.872C196.097 232.448 183.809 224.256 173.057 213.248C160.769 223.232 146.177 231.936 128.513 238.592L127.233 235.776C140.801 225.024 151.553 211.456 160.001 196.352C151.041 181.504 144.385 162.816 140.033 137.984H136.193C134.145 138.24 132.609 139.52 131.073 141.568L124.417 128.768C135.681 130.048 146.945 130.56 158.465 130.816H178.689L187.393 121.088C192.001 116.224 195.841 111.36 197.889 111.36C200.961 111.36 229.121 134.912 229.121 138.752C227.585 141.568 225.793 142.336 220.417 143.104C214.785 160 206.849 176.128 195.585 190.72ZM66.0489 267.776C85.2489 278.528 85.2489 281.088 80.3849 282.112L75.5209 282.88C58.6249 298.752 32.7689 316.672 5.12088 327.68L3.32888 325.376C9.98488 317.952 16.6409 308.992 23.0409 299.52C32.2569 285.44 41.2169 267.008 44.2889 252.928L66.0489 267.776ZM31.4889 384.768C22.2729 392.192 12.2889 399.36 2.04888 405.504L0.000875473 403.456C21.5049 374.784 42.4969 331.008 51.4569 303.872L93.1849 327.68C91.9049 330.24 89.6009 332.032 83.7129 331.52C76.8009 340.224 68.6089 349.696 59.3929 359.168C73.4729 368.64 73.4729 371.2 69.6329 372.992L66.0489 374.784V448C66.5609 467.456 66.8169 474.112 67.5849 485.632C65.7929 490.24 52.7369 498.944 37.8889 498.944C31.4889 498.944 28.6729 496.384 28.6729 493.824C30.2089 471.808 30.9769 460.544 31.4889 427.264V384.768ZM189.953 349.44C185.857 341.504 181.761 334.08 177.665 327.68C167.169 335.616 155.905 343.296 143.873 350.208L166.657 349.952L189.953 349.44ZM175.105 388.096C179.969 383.232 184.321 378.368 186.369 378.368C189.441 378.368 217.601 403.456 217.601 407.296C215.809 410.368 213.761 411.136 207.617 411.648C199.937 425.984 189.953 438.528 177.921 449.792C196.609 455.936 218.113 459.008 239.361 460.8V463.872C225.537 468.224 216.321 480.512 212.993 498.688C189.441 491.264 169.985 482.048 154.625 467.456C131.585 482.048 102.913 492.288 69.3769 497.92L68.0969 495.104C96.5129 483.84 120.577 467.712 138.753 448C134.145 440.32 129.793 431.872 126.465 422.144C110.081 439.04 91.3929 450.304 72.1929 458.24L69.6329 455.936C87.8089 438.528 105.473 410.88 116.225 379.136L97.7929 383.488C96.2569 386.816 92.9289 388.608 90.1129 389.12L78.5929 350.464C88.8329 350.72 105.473 350.72 125.953 350.464C134.145 341.504 141.825 331.264 149.249 321.024C158.977 307.2 167.681 290.304 171.777 276.48L193.025 291.584C211.713 302.336 211.713 304.896 206.849 305.92L202.241 306.688C195.841 312.832 188.161 319.488 179.457 326.144C255.745 342.784 230.145 401.92 200.961 379.904C199.425 372.992 196.865 365.568 194.049 358.4C179.969 362.752 162.817 367.36 142.081 372.48C163.841 377.088 163.841 379.648 158.977 381.952L154.113 384.256C151.553 389.12 148.737 393.472 146.177 397.824H165.633L175.105 388.096ZM141.057 404.992C137.729 409.344 134.657 413.696 130.817 417.536C135.937 424.448 142.081 430.592 148.993 435.456C156.161 425.984 161.793 415.744 166.145 404.992H141.057ZM128.513 303.616C149.249 321.536 132.865 347.648 111.105 335.36C104.961 320.256 92.6729 303.104 84.7369 290.816L86.5289 289.536C99.8409 290.816 110.081 293.376 118.017 297.216C123.137 283.648 127.745 265.728 128.513 253.44L152.321 264.96C173.569 272.896 173.569 275.456 168.449 277.248L163.329 278.784C153.089 288.768 140.545 297.216 128.513 303.616ZM113.665 740.864C107.521 741.376 106.753 737.792 115.457 736.512C142.081 732.16 197.121 707.84 197.121 645.632C197.121 578.304 158.209 547.84 128.769 547.84H125.185C127.745 555.776 130.817 570.112 130.817 579.584C130.817 647.936 78.0809 718.592 40.1929 718.592C30.7209 718.592 26.8809 713.472 25.6009 706.816C24.0649 698.112 26.6249 695.552 18.4329 676.864C13.8249 666.624 8.19287 662.784 8.19287 637.952C8.19287 603.648 51.9689 535.808 125.953 535.808C177.153 535.808 231.425 567.296 231.425 652.032C231.425 714.752 170.753 735.232 113.665 740.864ZM30.7209 650.752C30.7209 672.768 36.0969 688.64 47.1049 688.64C69.1209 688.64 121.345 604.16 121.345 557.056C121.345 553.984 121.089 550.912 120.833 548.352C67.3289 554.496 30.7209 622.08 30.7209 650.752ZM22.2729 773.376C97.0249 772.352 74.7529 832.512 43.5209 814.336C39.6809 800 29.4409 784.384 20.4809 774.912L21.2489 774.144L22.2729 773.376ZM3.07288 829.696C74.7529 833.024 48.1289 890.624 18.6889 869.632C17.1529 855.552 9.21688 840.448 1.28088 830.976L2.04888 830.464L3.07288 829.696ZM5.88888 933.376H17.6649C21.7609 933.376 22.7849 933.376 25.6009 928C31.7449 918.016 31.7449 918.016 80.1289 810.24L83.9689 811.264C73.9849 843.264 57.6009 902.4 54.5289 917.248C52.2249 926.464 50.1769 936.448 50.4329 943.104C50.9449 957.952 62.4649 965.376 61.9529 988.416C61.4409 1001.98 51.7129 1011.46 37.3769 1011.46C30.9769 1011.46 24.0649 1008.38 21.2489 998.144C26.3689 971.52 25.3449 946.432 19.2009 942.336C15.8729 939.776 11.5209 938.24 5.88888 937.984V933.376ZM180.993 847.872V814.592H121.345V847.872H180.993ZM179.969 946.432C197.121 959.232 218.369 966.912 240.385 972.544L239.873 975.36C225.793 978.944 215.553 990.464 210.689 1008.13C188.929 995.84 172.289 981.504 160.513 960C145.409 971.008 122.625 985.344 89.6009 1003.52C88.0649 1007.1 85.5049 1009.41 82.1769 1010.18L63.4889 967.936L88.0649 964.864V844.544C88.0649 827.136 87.0409 806.144 84.7369 792.064L124.673 807.424H134.145C134.145 794.112 133.377 777.472 131.585 766.208C177.409 774.656 177.409 777.216 172.801 780.288L168.449 783.104V807.424H178.433L185.345 798.976C189.185 794.624 192.257 790.272 194.305 790.272C197.377 790.272 224.513 811.008 224.513 814.848C222.977 816.896 219.905 819.2 214.529 820.224V897.536C214.529 898.56 209.921 900.608 204.033 902.4L234.241 928C232.193 931.072 229.121 931.84 222.465 929.792C208.385 936.96 193.537 942.592 179.969 946.432ZM180.993 889.344V855.04H121.345V889.344H180.993ZM197.377 904.192C193.793 904.96 189.953 905.472 186.625 905.472H180.993V896.512H145.153C151.041 914.944 160.001 928.768 171.521 939.52C179.969 929.536 189.697 916.736 197.377 904.192ZM157.697 954.368C150.273 939.264 144.897 920.576 140.801 896.512H121.345V960.256L157.697 954.368ZM110.081 1029.63C134.145 1030.66 134.145 1033.22 129.537 1036.29L124.929 1039.1C130.049 1139.71 153.857 1195.52 237.313 1223.42L237.057 1226.5C219.137 1230.34 208.129 1244.42 204.033 1264.64C144.897 1232.9 128.513 1172.74 122.881 1088.51C118.273 1156.1 99.8409 1221.63 5.63288 1266.69L3.32888 1263.36C71.6809 1207.04 83.7129 1143.55 85.7609 1078.02C86.2729 1061.12 85.2489 1040.13 82.9449 1026.05L110.081 1029.63ZM34.8169 1502.98C21.5049 1502.98 11.2649 1492.48 11.2649 1479.68C11.2649 1466.62 21.5049 1455.87 34.8169 1455.87C48.1289 1455.87 58.3689 1466.62 58.3689 1479.68C58.3689 1492.48 48.1289 1502.98 34.8169 1502.98Z" fill="white"/>
</svg>
