<svg width="4603" height="2010" viewBox="0 0 4603 2010" fill="none" xmlns="http://www.w3.org/2000/svg">
<g filter="url(#filter0_i_105_1492)">
<mask id="mask0_105_1492" style="mask-type:alpha" maskUnits="userSpaceOnUse" x="0" y="0" width="4603" height="2010">
<path d="M190.909 1649.5C192.606 1662.38 195.576 1675.26 199.818 1688.15C203.212 1698.69 212.121 1715.08 226.545 1737.34C246.06 1771.3 260.909 1801.17 271.091 1826.93C281.272 1852.7 286.363 1883.73 286.363 1920.04C286.363 1928.24 285.515 1941.71 283.818 1960.45C321.151 1912.43 353.394 1866.17 380.545 1821.66C407.697 1778.33 421.272 1738.51 421.272 1702.2C421.272 1676.44 419.575 1651.26 416.181 1626.66C412.787 1602.07 407.697 1573.37 400.909 1540.58C396.666 1515.98 392.424 1491.39 388.181 1466.8C384.788 1442.2 383.091 1419.36 383.091 1398.28C383.091 1318.64 433.151 1261.84 533.272 1227.88L538.363 1241.93C523.09 1247.79 509.515 1265.35 497.636 1294.63C485.757 1322.74 479.818 1351.43 479.818 1380.71C479.818 1402.97 481.939 1425.8 486.181 1449.23C491.272 1472.65 498.06 1501.93 506.545 1537.07C511.636 1558.15 516.303 1578.64 520.545 1598.55C524.787 1617.29 526.909 1633.1 526.909 1645.98C526.909 1697.52 511.212 1744.36 479.818 1786.53C448.424 1829.86 405.151 1877.88 350 1930.58C310.969 1968.06 285.515 1994.41 273.636 2009.63H268.545C273.636 1983.87 257.939 1946.98 221.454 1898.96C184.97 1852.11 144.242 1807.61 99.2726 1765.44C54.303 1722.11 21.2121 1691.66 0 1674.09V1661.8C9.33332 1669.99 17.8182 1674.09 25.4545 1674.09C36.4848 1674.09 45.3939 1667.07 52.1818 1653.01C59.8181 1637.79 63.6363 1614.36 63.6363 1582.74V739.497C63.6363 707.875 59.8181 685.037 52.1818 670.983C45.3939 655.758 36.4848 648.145 25.4545 648.145C17.8182 648.145 9.33332 652.244 0 660.442V648.145L45.8181 604.226C155.273 496.478 218.485 441.433 235.454 439.091V472.469L218.909 468.955C207.03 468.955 199.394 475.983 196 490.037C192.606 502.919 190.909 528.1 190.909 565.577V1649.5Z" fill="white"/>
<path d="M569.605 589.045C671.602 491.203 730.507 441.218 746.321 439.091V469.401C740.786 468.337 735.251 467.274 729.717 466.21C719.438 466.21 712.717 472.059 709.555 483.758C706.392 495.457 704.81 516.195 704.81 545.973C747.507 519.386 787.831 496.52 825.784 477.377C864.527 458.234 890.224 448.662 902.875 448.662C933.711 448.662 961.78 462.488 987.082 490.139C1012.38 517.79 1025.03 570.966 1025.03 649.666V1477.61C1025.03 1540.36 1033.34 1571.73 1049.94 1571.73C1055.47 1571.73 1061.01 1568.54 1066.54 1562.16V1573.32C1059.43 1578.64 1049.94 1587.15 1038.08 1598.85C1027.01 1609.48 1013.96 1622.25 998.942 1637.14C904.061 1730.72 849.109 1778.58 834.086 1780.71V1750.4C836.458 1751.46 840.016 1751.99 844.76 1751.99C861.364 1751.99 875.596 1741.36 887.456 1720.09C899.317 1698.82 905.642 1671.17 906.433 1637.14L904.061 920.861C894.573 940.004 889.828 986.799 889.828 1061.24C877.968 1061.24 862.155 1069.75 842.388 1086.77C822.621 1102.72 803.25 1124.52 784.273 1152.17C765.297 1179.83 750.67 1209.6 740.391 1241.51H736.833C736.042 1210.67 732.484 1185.68 726.159 1166.53C720.624 1146.33 713.508 1133.03 704.81 1126.65V1584.49C704.81 1650.43 713.113 1703.6 729.717 1744.02C747.112 1785.5 767.669 1806.23 791.389 1806.23V1836.54C782.692 1835.48 763.716 1819 734.461 1787.09C705.206 1756.25 665.672 1712.64 615.86 1656.28C563.675 1597.79 534.025 1565.88 526.909 1560.56V1549.4C535.606 1556.84 543.513 1560.56 550.629 1560.56C560.908 1560.56 569.21 1554.18 575.535 1541.42C582.651 1527.59 586.209 1506.32 586.209 1477.61V711.881C586.209 683.166 582.651 662.428 575.535 649.666C569.21 635.84 560.908 628.927 550.629 628.927C543.513 628.927 535.606 632.649 526.909 640.094V628.927L569.605 589.045ZM904.061 890.551L902.875 625.737C901.293 575.752 893.387 550.759 879.154 550.759C867.294 550.759 843.574 560.331 807.994 579.474C773.204 598.617 738.81 620.951 704.81 646.475V1091.55L904.061 890.551Z" fill="white"/>
<path d="M1429.55 1174.96C1429.55 1151.82 1418.09 1130.99 1395.16 1112.48C1372.23 1093.04 1337.04 1069.9 1289.6 1043.06C1236.63 1013.44 1196.3 987.057 1168.63 963.916C1140.95 939.85 1127.12 911.619 1127.12 879.222V787.586C1127.12 762.594 1123.56 744.545 1116.44 733.437C1110.12 721.404 1101.82 715.388 1091.54 715.388C1084.42 715.388 1076.51 718.627 1067.82 725.107V715.388C1082.84 705.206 1110.51 681.603 1150.84 644.578C1191.95 606.628 1228.32 568.214 1259.95 529.338C1291.58 489.537 1305.02 459.454 1300.28 439.091H1305.02C1320.04 454.826 1344.95 476.115 1379.74 502.958C1433.5 545.537 1475.01 583.487 1504.27 616.809C1533.52 650.132 1548.15 686.694 1548.15 726.495V768.148L1429.55 837.569V704.28C1429.55 670.032 1422.44 638.099 1408.2 608.479C1394.76 577.933 1381.32 554.793 1367.88 539.057C1354.44 522.396 1336.65 502.495 1314.51 479.355C1316.88 496.016 1318.07 511.752 1318.07 526.561C1318.07 558.033 1313.72 585.801 1305.02 609.867C1296.32 633.933 1284.46 658.925 1269.44 684.842C1260.74 701.503 1255.6 711.685 1254.02 715.388C1250.07 724.644 1247.7 733.437 1246.91 741.768C1246.11 750.098 1245.72 757.503 1245.72 763.983V837.569C1245.72 866.264 1257.97 890.793 1282.49 911.156C1307 931.52 1343.76 954.197 1392.78 979.189C1444.18 1006.03 1482.92 1030.56 1509.01 1052.78C1535.11 1074.07 1548.15 1100.91 1548.15 1133.3V1369.34C1548.15 1394.33 1551.32 1412.84 1557.64 1424.87C1564.76 1435.98 1573.45 1441.54 1583.73 1441.54C1591.64 1441.54 1599.55 1438.3 1607.45 1431.82V1441.54C1587.69 1455.42 1556.85 1479.49 1514.94 1513.73C1473.04 1547.06 1435.09 1582.23 1401.09 1619.25C1367.09 1657.2 1352.46 1686.36 1357.2 1706.73H1352.46C1338.23 1692.84 1316.48 1673.4 1287.23 1648.41C1236.63 1605.83 1197.09 1566.96 1168.63 1531.78C1140.95 1497.54 1127.12 1460.05 1127.12 1419.32V1231.88L1245.72 1162.46V1441.54C1245.72 1490.59 1256 1534.1 1276.56 1572.05C1297.9 1610.92 1320.44 1642.86 1344.16 1667.85C1342.58 1659.52 1341.79 1647.95 1341.79 1633.14C1341.79 1603.52 1346.93 1576.68 1357.2 1552.61C1367.48 1529.47 1381.32 1505.4 1398.71 1480.41C1408.99 1464.68 1416.5 1451.72 1421.25 1441.54C1425.99 1430.43 1428.76 1421.17 1429.55 1413.77C1430.34 1406.36 1430.34 1399.42 1429.55 1392.94V1174.96Z" fill="white"/>
<path d="M1803.76 565.828C1887.72 483.134 1936.22 440.888 1949.24 439.091V464.708L1936.54 462.011C1927.43 462.011 1921.57 467.404 1918.97 478.19C1916.36 488.078 1915.06 507.403 1915.06 536.166V537.515C1994.47 477.292 2042.97 447.18 2060.54 447.18C2077.46 447.18 2091.78 460.214 2103.5 486.28C2115.22 511.448 2124.66 542.009 2131.82 577.963L2125.96 583.356C2113.59 559.087 2095.37 546.953 2071.28 546.953C2058.26 546.953 2039.06 553.694 2013.68 567.177C1988.29 580.659 1960.63 597.738 1930.68 618.411L1915.06 629.197V1407.15C1915.06 1462.88 1921.9 1507.82 1935.57 1541.98C1949.89 1577.04 1966.81 1594.56 1986.34 1594.56V1620.18C1979.18 1619.28 1963.56 1605.35 1939.47 1578.38C1915.39 1552.32 1882.84 1515.46 1841.83 1467.83C1798.87 1418.39 1774.47 1391.42 1768.61 1386.93V1377.49C1775.77 1383.78 1782.28 1386.93 1788.13 1386.93C1796.6 1386.93 1803.43 1381.54 1808.64 1370.75C1814.5 1359.06 1817.43 1341.09 1817.43 1316.82V702.004C1769.26 741.554 1733.46 770.317 1710.02 788.294C1687.24 805.372 1671.3 813.911 1662.18 813.911C1645.26 813.911 1630.94 801.327 1619.22 776.159C1607.51 750.093 1598.07 719.082 1590.91 683.128L1596.77 677.735C1609.78 702.004 1628.01 714.139 1651.44 714.139C1672.92 714.139 1725.97 682.679 1810.59 619.759C1806.03 606.277 1798.87 599.535 1789.11 599.535C1782.6 599.535 1775.77 602.681 1768.61 608.973V599.535L1803.76 565.828Z" fill="white"/>
<path d="M3197.61 1305.83C3197.61 1329.11 3200.77 1346.36 3207.09 1357.57C3214.21 1367.92 3222.91 1373.1 3233.19 1373.1C3241.09 1373.1 3249 1370.08 3256.91 1364.04V1373.1C3237.14 1386.03 3206.3 1408.46 3164.4 1440.36C3122.49 1471.41 3084.54 1504.18 3050.54 1538.68C3016.54 1574.04 3001.91 1601.21 3006.66 1620.18H3001.91C2987.68 1607.24 2965.94 1589.13 2936.68 1565.85C2886.08 1526.18 2846.55 1489.95 2818.08 1457.18C2790.41 1425.27 2776.57 1390.34 2776.57 1352.4V763.793C2776.57 740.508 2773.01 723.69 2765.9 713.341C2759.57 702.13 2751.27 696.524 2740.99 696.524C2733.87 696.524 2725.97 699.543 2717.27 705.579V696.524C2732.29 687.037 2759.97 665.046 2800.29 630.549C2841.41 595.189 2877.78 559.399 2909.4 523.177C2941.03 486.093 2954.47 458.064 2949.73 439.091H2954.47C2969.5 453.752 2994.4 473.587 3029.19 498.598C3082.17 538.269 3123.28 573.629 3152.54 604.676C3181.79 635.723 3196.81 669.358 3197.61 705.579V1305.83ZM3079 686.175C3079 654.265 3071.89 624.512 3057.66 596.914C3044.21 568.454 3030.77 546.893 3017.33 532.232C3003.89 516.709 2986.1 498.167 2963.96 476.606C2966.33 492.13 2967.52 506.791 2967.52 520.59C2967.52 549.912 2963.17 575.785 2954.47 598.208C2945.78 620.631 2933.92 643.916 2918.89 668.064C2910.19 683.588 2905.06 693.074 2903.47 696.524C2897.94 708.598 2895.17 719.81 2895.17 730.159V1373.1C2895.17 1418.8 2905.45 1459.34 2926.01 1494.7C2947.36 1530.92 2969.89 1560.67 2993.61 1583.96C2992.03 1576.2 2991.24 1565.42 2991.24 1551.62C2991.24 1524.02 2996.38 1499.01 3006.66 1476.59C3016.94 1455.03 3030.77 1432.6 3048.17 1409.32C3058.45 1394.66 3065.96 1382.58 3070.7 1373.1C3074.66 1363.61 3077.42 1355.42 3079 1348.52V686.175Z" fill="white"/>
<path d="M3241.63 1446.51C3250.33 1453.26 3258.24 1456.63 3265.35 1456.63C3275.63 1456.63 3283.93 1450.85 3290.26 1439.29C3297.38 1426.76 3300.93 1407.48 3300.93 1381.46V687.564C3300.93 661.543 3297.38 642.75 3290.26 631.185C3283.93 618.656 3275.63 612.392 3265.35 612.392C3258.24 612.392 3250.33 615.765 3241.63 622.511V612.392L3284.33 576.251C3386.33 487.587 3445.23 442.291 3461.05 440.363V467.83L3445.63 464.939C3434.56 464.939 3427.44 470.239 3424.28 480.841C3421.12 491.442 3419.54 510.717 3419.54 538.665C3440.88 561.795 3470.14 613.356 3507.3 693.347C3545.25 772.374 3583.2 861.038 3621.16 959.341V687.564C3621.16 661.543 3617.6 642.75 3610.48 631.185C3604.16 618.656 3595.86 612.392 3585.58 612.392C3578.46 612.392 3570.55 615.765 3561.86 622.511V612.392C3565.02 610.464 3585.58 593.117 3623.53 560.35C3671.76 519.872 3707.74 489.996 3731.46 470.721C3755.18 451.446 3771.78 441.327 3781.27 440.363V467.83L3765.85 464.939C3754.78 464.939 3747.67 470.721 3744.5 482.286C3741.34 492.887 3739.76 513.608 3739.76 544.448V1381.46C3739.76 1438.32 3748.06 1466.75 3764.67 1466.75C3770.2 1466.75 3775.73 1463.86 3781.27 1458.08V1468.2C3774.15 1473.02 3764.67 1480.73 3752.8 1491.33C3741.74 1500.97 3728.69 1512.53 3713.67 1526.02C3618.79 1610.83 3563.83 1654.2 3548.81 1656.13V1628.66C3551.18 1629.63 3554.74 1630.11 3559.48 1630.11C3576.09 1630.11 3590.32 1619.99 3602.18 1599.75C3614.83 1579.51 3621.16 1554.45 3621.16 1524.58V1400.25C3621.16 1345.32 3608.9 1261.96 3584.39 1150.16C3559.88 1038.37 3531.42 932.356 3499 832.126C3466.58 730.933 3440.09 668.289 3419.54 644.196V1478.32C3419.54 1538.07 3427.84 1586.26 3444.44 1622.88C3461.84 1660.47 3482.39 1679.26 3506.11 1679.26V1706.73C3497.42 1705.76 3478.44 1690.82 3449.19 1661.91C3419.93 1633.96 3380.4 1594.45 3330.58 1543.37C3278.4 1490.36 3248.75 1461.45 3241.63 1456.63V1446.51Z" fill="white"/>
<path d="M4038.36 1634.24C4034.97 1636.5 4012.91 1656.9 3972.18 1695.44C3920.42 1743.04 3881.81 1778.17 3856.36 1800.84C3830.91 1823.51 3813.09 1835.41 3802.91 1836.54V1804.24L3819.45 1807.64C3831.33 1807.64 3838.97 1800.84 3842.36 1787.24C3845.75 1774.77 3847.45 1750.41 3847.45 1714.14V729.802C3847.45 699.2 3843.63 677.1 3836 663.499C3829.21 648.765 3820.3 641.398 3809.27 641.398C3801.63 641.398 3793.15 645.365 3783.81 653.299V641.398C3787.21 639.131 3809.27 618.731 3850 580.196C3901.75 532.594 3940.36 497.459 3965.81 474.792C3991.27 452.124 4009.09 440.224 4019.27 439.091V471.392L4002.72 467.992C3990.84 467.992 3983.21 474.792 3979.81 488.392C3976.42 500.86 3974.72 525.227 3974.72 561.495V1545.83C3974.72 1576.43 3978.12 1599.1 3984.91 1613.84C3992.54 1627.44 4001.88 1634.24 4012.91 1634.24C4021.39 1634.24 4029.88 1630.27 4038.36 1622.34V1634.24Z" fill="white"/>
<path d="M4062.54 1686.92C4071.24 1695.29 4079.15 1699.47 4086.26 1699.47C4096.54 1699.47 4104.84 1692.3 4111.17 1677.96C4118.28 1662.42 4121.84 1638.51 4121.84 1606.24V745.669C4121.84 713.398 4118.28 690.091 4111.17 675.748C4104.84 660.21 4096.54 652.441 4086.26 652.441C4079.15 652.441 4071.24 656.624 4062.54 664.991V652.441L4105.24 607.619C4207.24 497.657 4266.14 441.481 4281.95 439.091V473.155L4266.54 469.569C4255.47 469.569 4248.35 476.143 4245.19 489.291C4242.02 502.438 4240.44 526.343 4240.44 561.005C4261.79 589.691 4291.05 653.636 4328.21 752.841C4366.16 850.85 4404.11 960.812 4442.07 1082.73V745.669C4442.07 713.398 4438.51 690.091 4431.39 675.748C4425.07 660.21 4416.76 652.441 4406.49 652.441C4399.37 652.441 4391.46 656.624 4382.77 664.991V652.441C4385.93 650.05 4406.49 628.536 4444.44 587.898C4492.67 537.698 4528.64 500.645 4552.36 476.74C4576.08 452.836 4592.69 440.286 4602.18 439.091V473.155L4586.76 469.569C4575.69 469.569 4568.57 476.741 4565.41 491.083C4562.25 504.231 4560.67 529.929 4560.67 568.176V1606.24C4560.67 1676.76 4568.97 1712.02 4585.57 1712.02C4591.11 1712.02 4596.64 1708.43 4602.18 1701.26V1713.81C4595.06 1719.79 4585.57 1729.35 4573.71 1742.5C4562.64 1754.45 4549.6 1768.79 4534.57 1785.53C4439.69 1890.71 4384.74 1944.49 4369.72 1946.88V1912.82C4372.09 1914.02 4375.65 1914.61 4380.39 1914.61C4397 1914.61 4411.23 1902.06 4423.09 1876.96C4435.74 1851.86 4442.07 1820.79 4442.07 1783.73V1629.55C4442.07 1561.42 4429.81 1458.03 4405.3 1319.38C4380.79 1180.74 4352.32 1049.26 4319.91 924.955C4287.49 799.455 4261 721.765 4240.44 691.884V1726.36C4240.44 1800.47 4248.75 1860.23 4265.35 1905.65C4282.74 1952.26 4303.3 1975.57 4327.02 1975.57V2009.63C4318.33 2008.44 4299.35 1989.91 4270.09 1954.06C4240.84 1919.39 4201.31 1870.39 4151.49 1807.04C4099.31 1741.3 4069.66 1705.45 4062.54 1699.47V1686.92Z" fill="white"/>
<path fill-rule="evenodd" clip-rule="evenodd" d="M2394.5 464.055C2388.97 463.179 2383.43 462.303 2377.9 461.427C2367.62 461.427 2360.9 466.245 2357.73 475.88C2354.57 485.516 2352.99 502.596 2352.99 527.122C2395.69 505.224 2436.01 486.391 2473.96 470.624C2512.71 454.857 2538.4 446.974 2551.06 446.974H2554.61C2586.24 447.85 2613.91 459.675 2637.63 482.449C2661.35 505.223 2673.21 548.583 2673.21 612.527V845.088C2670.84 857.351 2664.12 867.863 2653.05 876.622C2576.36 930.93 2525.36 968.158 2500.06 988.304C2535.64 997.939 2567.66 1013.71 2596.12 1035.6C2625.38 1056.63 2645.94 1073.71 2657.8 1086.85C2669.66 1099.99 2688.63 1122.76 2714.72 1155.17V1165.68C2709.19 1160.43 2703.66 1157.8 2698.12 1157.8C2681.52 1157.8 2673.21 1183.64 2673.21 1235.32V1294.44C2673.21 1346.12 2681.52 1371.97 2698.12 1371.97C2703.66 1371.97 2709.19 1369.34 2714.72 1364.08V1373.28C2707.61 1377.66 2698.12 1384.67 2686.26 1394.3C2675.19 1403.06 2662.14 1413.57 2647.12 1425.83C2577 1482.8 2528.68 1519.2 2502.18 1535.02V1519.43C2514.89 1516.59 2526.04 1507.73 2535.64 1492.84C2548.29 1474.45 2554.61 1451.67 2554.61 1424.52V1147.29C2554.61 1111.37 2547.89 1080.28 2534.45 1054C2521.8 1027.72 2505.59 1009.76 2485.82 1000.13C2445.5 1033.41 2414.27 1066.26 2392.13 1098.67C2369.99 1130.21 2356.94 1165.68 2352.99 1205.1V1382.48C2352.99 1436.78 2361.29 1480.58 2377.9 1513.87C2389.15 1535.97 2401.73 1550.92 2415.63 1558.72V1576.91C2406.68 1570.24 2395.68 1561.05 2382.64 1549.34C2353.39 1523.94 2313.85 1488.03 2264.04 1441.6C2211.85 1393.43 2182.2 1367.15 2175.09 1362.77V1353.57C2183.79 1359.7 2191.69 1362.77 2198.81 1362.77C2209.09 1362.77 2217.39 1357.51 2223.72 1347C2230.83 1335.61 2234.39 1318.09 2234.39 1294.44V663.769C2234.39 640.119 2230.83 623.038 2223.72 612.527C2217.39 601.14 2209.09 595.446 2198.81 595.446C2191.69 595.446 2183.79 598.512 2175.09 604.643V595.446L2217.78 562.598C2319.78 482.012 2378.69 440.843 2394.5 439.091V464.055ZM2527.33 531.064C2515.47 531.064 2491.75 538.948 2456.17 554.715C2421.38 570.482 2386.99 588.876 2352.99 609.898V1014.58C2375.13 992.684 2399.25 974.289 2425.34 959.398C2451.43 943.631 2486.61 924.798 2530.89 902.9C2538.8 898.52 2544.33 893.703 2547.5 888.447C2551.45 883.192 2553.43 875.745 2553.43 866.11L2554.61 603.329C2550.66 555.153 2541.57 531.064 2527.33 531.064Z" fill="white"/>
<path d="M2147.09 356.872V350.763L2163.38 345.672C2174.58 342.618 2175.6 339.563 2175.6 325.309V12.2182C2149.63 12.2182 2125.2 45.8182 2117.56 137.964H2112.98L2119.6 0H2269.78L2276.4 137.964H2271.31C2263.67 45.8182 2239.74 12.2182 2213.27 12.2182V325.309C2213.27 339.563 2214.29 342.618 2225.49 345.672L2241.78 350.763V356.872H2147.09Z" fill="white"/>
<path d="M2313.51 325.309V31.5636C2313.51 17.3091 2313 14.2545 2300.78 11.2L2285 6.1091V0H2380.2V6.1091L2363.4 11.2C2352.2 14.2545 2350.67 17.3091 2350.67 31.5636V132.364H2422.96V31.5636C2422.96 17.3091 2421.94 14.2545 2410.23 11.2L2393.43 6.1091V0H2489.14V6.1091L2472.85 11.2C2461.65 14.2545 2460.12 17.3091 2460.12 31.5636V325.309C2460.12 340.072 2461.65 342.618 2472.85 345.672L2489.14 350.763V356.872H2393.43V350.763L2410.23 345.672C2421.94 342.618 2422.96 339.563 2422.96 325.309V144.073H2350.67V325.309C2350.67 339.563 2352.2 342.618 2363.4 345.672L2380.2 350.763V356.363H2285V350.763L2300.78 345.672C2313 342.618 2313.51 339.563 2313.51 325.309Z" fill="white"/>
<path d="M2526.8 325.309V31.5636C2526.8 17.3091 2525.78 14.2545 2514.58 11.2L2497.78 6.1091V0C2549.2 0 2601.13 0 2652.54 0L2664.76 137.964H2658.65C2647.96 31.0545 2618.44 12.2182 2575.67 12.2182H2564.47V132.364H2570.07C2598.07 132.364 2615.89 121.164 2619.96 72.2908H2626.07C2619.96 136.436 2618.43 241.818 2611.31 305.963H2605.71C2612.33 194.473 2611.82 144.073 2570.07 144.073H2564.47V344.654H2573.64C2625.05 344.145 2651.02 315.636 2661.71 175.636H2667.82L2660.18 356.363C2605.71 356.363 2551.74 356.363 2497.78 356.363V350.763L2514.58 345.672C2525.78 342.618 2526.8 339.563 2526.8 325.309Z" fill="white"/>
<path d="M2860.53 154C2968.62 338.339 2964.26 345.527 2660 355.925C2975.42 363.884 2989.42 371.586 3312.16 853.999C3012.27 371.586 3016.25 363.756 3353.5 352.844C3003.93 345.27 2990.19 338.21 2860.53 154Z" fill="white"/>
<path d="M1947.7 154C1839.61 338.339 1843.97 345.527 2148.23 355.925C1832.8 363.884 1818.81 371.586 1496.06 853.999C1795.96 371.586 1791.98 363.756 1454.73 352.844C1804.3 345.27 1818.04 338.21 1947.7 154Z" fill="white"/>
<path d="M1936.25 154C1828.15 338.339 1832.52 345.527 2136.77 355.925C1821.35 363.884 1807.35 371.586 1484.61 853.999C1784.5 371.586 1780.52 363.756 1443.27 352.844C1792.85 345.27 1806.58 338.21 1936.25 154Z" fill="white"/>
<path d="M3307.67 226.545C3348.23 346.038 3345.77 349.961 3211.09 352.315C3349.58 359.937 3354.95 364.197 3431.48 553.636C3364.7 364.421 3367.06 360.274 3508.91 358.032C3363.13 350.297 3357.76 346.262 3307.78 226.545H3307.67Z" fill="white"/>
<path d="M1491.78 226.545C1451.22 346.038 1453.68 349.961 1588.36 352.315C1449.87 359.937 1444.5 364.197 1367.97 553.636C1434.75 364.421 1432.39 360.274 1290.54 358.032C1436.32 350.297 1441.69 346.262 1491.67 226.545H1491.78Z" fill="white"/>
</mask>
<g mask="url(#mask0_105_1492)">
<g filter="url(#filter1_n_105_1492)">
<path d="M-216.363 -103.09H5045.09V2410.54H-216.363V-103.09Z" fill="url(#paint0_linear_105_1492)"/>
</g>
<mask id="mask1_105_1492" style="mask-type:alpha" maskUnits="userSpaceOnUse" x="0" y="-20" width="4603" height="2011">
<path d="M190.909 1630.41C192.606 1643.29 195.576 1656.17 199.818 1669.06C203.212 1679.6 212.121 1695.99 226.545 1718.25C246.06 1752.21 260.909 1782.08 271.091 1807.84C281.272 1833.61 286.363 1864.64 286.363 1900.95C286.363 1909.15 285.515 1922.62 283.818 1941.35C321.151 1893.34 353.394 1847.08 380.545 1802.57C407.697 1759.24 421.272 1719.42 421.272 1683.11C421.272 1657.35 419.575 1632.16 416.181 1607.57C412.787 1582.98 407.697 1554.28 400.909 1521.49C396.666 1496.89 392.424 1472.3 388.181 1447.71C384.788 1423.11 383.091 1400.27 383.091 1379.19C383.091 1299.55 433.151 1242.75 533.272 1208.79L538.363 1222.84C523.09 1228.7 509.515 1246.26 497.636 1275.54C485.757 1303.65 479.818 1332.34 479.818 1361.62C479.818 1383.88 481.939 1406.71 486.181 1430.14C491.272 1453.56 498.06 1482.84 506.545 1517.98C511.636 1539.06 516.303 1559.55 520.545 1579.46C524.787 1598.2 526.909 1614.01 526.909 1626.89C526.909 1678.43 511.212 1725.27 479.818 1767.44C448.424 1810.77 405.151 1858.79 350 1911.49C310.969 1948.97 285.515 1975.32 273.636 1990.54H268.545C273.636 1964.78 257.939 1927.89 221.454 1879.87C184.97 1833.02 144.242 1788.52 99.2726 1746.35C54.303 1703.02 21.2121 1672.57 0 1655V1642.71C9.33332 1650.9 17.8182 1655 25.4545 1655C36.4848 1655 45.3939 1647.98 52.1818 1633.92C59.8181 1618.7 63.6363 1595.27 63.6363 1563.65V720.406C63.6363 688.785 59.8181 665.947 52.1818 651.893C45.3939 636.667 36.4848 629.055 25.4545 629.055C17.8182 629.055 9.33332 633.154 0 641.352V629.055L45.8181 585.136C155.273 477.388 218.485 422.343 235.454 420V453.379L218.909 449.865C207.03 449.865 199.394 456.892 196 470.946C192.606 483.829 190.909 509.009 190.909 546.487V1630.41Z" fill="white"/>
<path d="M569.605 569.955C671.602 472.112 730.507 422.127 746.321 420V450.31C740.786 449.247 735.251 448.183 729.717 447.12C719.438 447.12 712.717 452.969 709.555 464.668C706.392 476.366 704.81 497.105 704.81 526.883C747.507 500.295 787.831 477.43 825.784 458.287C864.527 439.143 890.224 429.572 902.875 429.572C933.711 429.572 961.78 443.397 987.082 471.049C1012.38 498.7 1025.03 551.876 1025.03 630.575V1458.52C1025.03 1521.27 1033.34 1552.64 1049.94 1552.64C1055.47 1552.64 1061.01 1549.45 1066.54 1543.07V1554.23C1059.43 1559.55 1049.94 1568.06 1038.08 1579.76C1027.01 1590.39 1013.96 1603.16 998.942 1618.05C904.061 1711.63 849.109 1759.49 834.086 1761.62V1731.31C836.458 1732.37 840.016 1732.9 844.76 1732.9C861.364 1732.9 875.596 1722.27 887.456 1701C899.317 1679.73 905.642 1652.08 906.433 1618.05L904.061 901.771C894.573 920.914 889.828 967.708 889.828 1042.15C877.968 1042.15 862.155 1050.66 842.388 1067.68C822.621 1083.63 803.25 1105.43 784.273 1133.08C765.297 1160.74 750.67 1190.51 740.391 1222.42H736.833C736.042 1191.58 732.484 1166.58 726.159 1147.44C720.624 1127.23 713.508 1113.94 704.81 1107.56V1565.4C704.81 1631.34 713.113 1684.51 729.717 1724.93C747.112 1766.4 767.669 1787.14 791.389 1787.14V1817.45C782.692 1816.39 763.716 1799.91 734.461 1768C705.206 1737.16 665.672 1693.55 615.86 1637.19C563.675 1578.7 534.025 1546.79 526.909 1541.47V1530.31C535.606 1537.75 543.513 1541.47 550.629 1541.47C560.908 1541.47 569.21 1535.09 575.535 1522.33C582.651 1508.5 586.209 1487.23 586.209 1458.52V692.791C586.209 664.076 582.651 643.337 575.535 630.575C569.21 616.75 560.908 609.837 550.629 609.837C543.513 609.837 535.606 613.559 526.909 621.004V609.837L569.605 569.955ZM904.061 871.461L902.875 606.646C901.293 556.661 893.387 531.669 879.154 531.669C867.294 531.669 843.574 541.24 807.994 560.384C773.204 579.527 738.81 601.861 704.81 627.385V1072.46L904.061 871.461Z" fill="white"/>
<path d="M1429.55 1155.87C1429.55 1132.73 1418.09 1111.9 1395.16 1093.39C1372.23 1073.95 1337.04 1050.81 1289.6 1023.97C1236.63 994.347 1196.3 967.967 1168.63 944.826C1140.95 920.76 1127.12 892.529 1127.12 860.132V768.496C1127.12 743.504 1123.56 725.454 1116.44 714.347C1110.12 702.314 1101.82 696.297 1091.54 696.297C1084.42 696.297 1076.51 699.537 1067.82 706.016V696.297C1082.84 686.116 1110.51 662.512 1150.84 625.488C1191.95 587.537 1228.32 549.124 1259.95 510.248C1291.58 470.446 1305.02 440.364 1300.28 420H1305.02C1320.04 435.736 1344.95 457.025 1379.74 483.868C1433.5 526.446 1475.01 564.397 1504.27 597.719C1533.52 631.041 1548.15 667.603 1548.15 707.405V749.058L1429.55 818.479V685.19C1429.55 650.942 1422.44 619.008 1408.2 589.388C1394.76 558.843 1381.32 535.703 1367.88 519.967C1354.44 503.306 1336.65 483.405 1314.51 460.265C1316.88 476.926 1318.07 492.661 1318.07 507.471C1318.07 538.942 1313.72 566.711 1305.02 590.777C1296.32 614.843 1284.46 639.835 1269.44 665.752C1260.74 682.413 1255.6 692.595 1254.02 696.297C1250.07 705.554 1247.7 714.347 1246.91 722.678C1246.11 731.008 1245.72 738.413 1245.72 744.892V818.479C1245.72 847.173 1257.97 871.702 1282.49 892.066C1307 912.429 1343.76 935.107 1392.78 960.099C1444.18 986.942 1482.92 1011.47 1509.01 1033.69C1535.11 1054.97 1548.15 1081.82 1548.15 1114.21V1350.25C1548.15 1375.24 1551.32 1393.75 1557.64 1405.78C1564.76 1416.89 1573.45 1422.45 1583.73 1422.45C1591.64 1422.45 1599.55 1419.21 1607.45 1412.73V1422.45C1587.69 1436.33 1556.85 1460.4 1514.94 1494.64C1473.04 1527.97 1435.09 1563.14 1401.09 1600.16C1367.09 1638.11 1352.46 1667.27 1357.2 1687.64H1352.46C1338.23 1673.75 1316.48 1654.31 1287.23 1629.32C1236.63 1586.74 1197.09 1547.87 1168.63 1512.69C1140.95 1478.45 1127.12 1440.96 1127.12 1400.23V1212.79L1245.72 1143.37V1422.45C1245.72 1471.5 1256 1515.01 1276.56 1552.96C1297.9 1591.83 1320.44 1623.77 1344.16 1648.76C1342.58 1640.43 1341.79 1628.86 1341.79 1614.05C1341.79 1584.43 1346.93 1557.59 1357.2 1533.52C1367.48 1510.38 1381.32 1486.31 1398.71 1461.32C1408.99 1445.59 1416.5 1432.63 1421.25 1422.45C1425.99 1411.34 1428.76 1402.08 1429.55 1394.68C1430.34 1387.27 1430.34 1380.33 1429.55 1373.85V1155.87Z" fill="white"/>
<path d="M1803.76 546.738C1887.72 464.044 1936.22 421.798 1949.24 420V445.617L1936.54 442.921C1927.43 442.921 1921.57 448.314 1918.97 459.1C1916.36 468.988 1915.06 488.313 1915.06 517.076V518.424C1994.47 458.201 2042.97 428.09 2060.54 428.09C2077.46 428.09 2091.78 441.123 2103.5 467.19C2115.22 492.358 2124.66 522.919 2131.82 558.873L2125.96 564.266C2113.59 539.997 2095.37 527.862 2071.28 527.862C2058.26 527.862 2039.06 534.604 2013.68 548.086C1988.29 561.569 1960.63 578.647 1930.68 599.321L1915.06 610.107V1388.06C1915.06 1443.79 1921.9 1488.73 1935.57 1522.89C1949.89 1557.95 1966.81 1575.47 1986.34 1575.47V1601.09C1979.18 1600.19 1963.56 1586.26 1939.47 1559.29C1915.39 1533.23 1882.84 1496.37 1841.83 1448.73C1798.87 1399.3 1774.47 1372.33 1768.61 1367.84V1358.4C1775.77 1364.69 1782.28 1367.84 1788.13 1367.84C1796.6 1367.84 1803.43 1362.44 1808.64 1351.66C1814.5 1339.97 1817.43 1322 1817.43 1297.73V682.914C1769.26 722.463 1733.46 751.227 1710.02 769.204C1687.24 786.282 1671.3 794.821 1662.18 794.821C1645.26 794.821 1630.94 782.237 1619.22 757.069C1607.51 731.002 1598.07 699.992 1590.91 664.038L1596.77 658.645C1609.78 682.914 1628.01 695.048 1651.44 695.048C1672.92 695.048 1725.97 663.589 1810.59 600.669C1806.03 587.186 1798.87 580.445 1789.11 580.445C1782.6 580.445 1775.77 583.591 1768.61 589.883V580.445L1803.76 546.738Z" fill="white"/>
<path d="M3197.61 1286.74C3197.61 1310.02 3200.77 1327.27 3207.09 1338.48C3214.21 1348.83 3222.91 1354.01 3233.19 1354.01C3241.09 1354.01 3249 1350.99 3256.91 1344.95V1354.01C3237.14 1366.94 3206.3 1389.36 3164.4 1421.27C3122.49 1452.32 3084.54 1485.09 3050.54 1519.59C3016.54 1554.95 3001.91 1582.12 3006.66 1601.09H3001.91C2987.68 1588.15 2965.94 1570.04 2936.68 1546.76C2886.08 1507.09 2846.55 1470.86 2818.08 1438.09C2790.41 1406.18 2776.57 1371.25 2776.57 1333.31V744.703C2776.57 721.417 2773.01 704.6 2765.9 694.251C2759.57 683.039 2751.27 677.434 2740.99 677.434C2733.87 677.434 2725.97 680.452 2717.27 686.489V677.434C2732.29 667.947 2759.97 645.955 2800.29 611.458C2841.41 576.099 2877.78 540.308 2909.4 504.087C2941.03 467.002 2954.47 438.974 2949.73 420H2954.47C2969.5 434.661 2994.4 454.497 3029.19 479.507C3082.17 519.179 3123.28 554.538 3152.54 585.586C3181.79 616.633 3196.81 650.267 3197.61 686.489V1286.74ZM3079 667.085C3079 635.175 3071.89 605.421 3057.66 577.824C3044.21 549.364 3030.77 527.803 3017.33 513.142C3003.89 497.618 2986.1 479.076 2963.96 457.516C2966.33 473.039 2967.52 487.7 2967.52 501.499C2967.52 530.822 2963.17 556.694 2954.47 579.117C2945.78 601.54 2933.92 624.826 2918.89 648.974C2910.19 664.497 2905.06 673.984 2903.47 677.434C2897.94 689.508 2895.17 700.719 2895.17 711.068V1354.01C2895.17 1399.71 2905.45 1440.25 2926.01 1475.61C2947.36 1511.83 2969.89 1541.58 2993.61 1564.87C2992.03 1557.11 2991.24 1546.33 2991.24 1532.53C2991.24 1504.93 2996.38 1479.92 3006.66 1457.5C3016.94 1435.94 3030.77 1413.51 3048.17 1390.23C3058.45 1375.57 3065.96 1363.49 3070.7 1354.01C3074.66 1344.52 3077.42 1336.33 3079 1329.43V667.085Z" fill="white"/>
<path d="M3241.63 1427.42C3250.33 1434.17 3258.24 1437.54 3265.35 1437.54C3275.63 1437.54 3283.93 1431.76 3290.26 1420.2C3297.38 1407.67 3300.93 1388.39 3300.93 1362.37V668.474C3300.93 642.453 3297.38 623.66 3290.26 612.095C3283.93 599.566 3275.63 593.302 3265.35 593.302C3258.24 593.302 3250.33 596.675 3241.63 603.421V593.302L3284.33 557.161C3386.33 468.496 3445.23 423.2 3461.05 421.273V448.74L3445.63 445.848C3434.56 445.848 3427.44 451.149 3424.28 461.75C3421.12 472.351 3419.54 491.626 3419.54 519.575C3440.88 542.705 3470.14 594.265 3507.3 674.256C3545.25 753.284 3583.2 841.948 3621.16 940.25V668.474C3621.16 642.453 3617.6 623.66 3610.48 612.095C3604.16 599.566 3595.86 593.302 3585.58 593.302C3578.46 593.302 3570.55 596.675 3561.86 603.421V593.302C3565.02 591.374 3585.58 574.027 3623.53 541.259C3671.76 500.782 3707.74 470.906 3731.46 451.631C3755.18 432.356 3771.78 422.237 3781.27 421.273V448.74L3765.85 445.848C3754.78 445.848 3747.67 451.631 3744.5 463.196C3741.34 473.797 3739.76 494.518 3739.76 525.358V1362.37C3739.76 1419.23 3748.06 1447.66 3764.67 1447.66C3770.2 1447.66 3775.73 1444.77 3781.27 1438.99V1449.11C3774.15 1453.93 3764.67 1461.64 3752.8 1472.24C3741.74 1481.88 3728.69 1493.44 3713.67 1506.93C3618.79 1591.74 3563.83 1635.11 3548.81 1637.04V1609.57C3551.18 1610.54 3554.74 1611.02 3559.48 1611.02C3576.09 1611.02 3590.32 1600.9 3602.18 1580.66C3614.83 1560.42 3621.16 1535.36 3621.16 1505.49V1381.16C3621.16 1326.23 3608.9 1242.87 3584.39 1131.07C3559.88 1019.28 3531.42 913.265 3499 813.036C3466.58 711.842 3440.09 649.199 3419.54 625.105V1459.23C3419.54 1518.98 3427.84 1567.17 3444.44 1603.79C3461.84 1641.38 3482.39 1660.17 3506.11 1660.17V1687.64C3497.42 1686.67 3478.44 1671.73 3449.19 1642.82C3419.93 1614.87 3380.4 1575.36 3330.58 1524.28C3278.4 1471.27 3248.75 1442.36 3241.63 1437.54V1427.42Z" fill="white"/>
<path d="M4038.36 1615.15C4034.97 1617.41 4012.91 1637.81 3972.18 1676.35C3920.42 1723.95 3881.81 1759.08 3856.36 1781.75C3830.91 1804.42 3813.09 1816.32 3802.91 1817.45V1785.15L3819.45 1788.55C3831.33 1788.55 3838.97 1781.75 3842.36 1768.15C3845.75 1755.68 3847.45 1731.32 3847.45 1695.05V710.711C3847.45 680.11 3843.63 658.009 3836 644.409C3829.21 629.675 3820.3 622.308 3809.27 622.308C3801.63 622.308 3793.15 626.275 3783.81 634.208V622.308C3787.21 620.041 3809.27 599.64 3850 561.106C3901.75 513.504 3940.36 478.369 3965.81 455.701C3991.27 433.034 4009.09 421.134 4019.27 420V452.301L4002.72 448.901C3990.84 448.901 3983.21 455.702 3979.81 469.302C3976.42 481.769 3974.72 506.137 3974.72 542.405V1526.74C3974.72 1557.34 3978.12 1580.01 3984.91 1594.74C3992.54 1608.35 4001.88 1615.15 4012.91 1615.15C4021.39 1615.15 4029.88 1611.18 4038.36 1603.25V1615.15Z" fill="white"/>
<path d="M4062.54 1667.83C4071.24 1676.2 4079.15 1680.38 4086.26 1680.38C4096.54 1680.38 4104.84 1673.21 4111.17 1658.87C4118.28 1643.33 4121.84 1619.42 4121.84 1587.15V726.579C4121.84 694.307 4118.28 671 4111.17 656.658C4104.84 641.119 4096.54 633.35 4086.26 633.35C4079.15 633.35 4071.24 637.534 4062.54 645.9V633.35L4105.24 588.529C4207.24 478.567 4266.14 422.391 4281.95 420V454.064L4266.54 450.479C4255.47 450.479 4248.35 457.053 4245.19 470.2C4242.02 483.348 4240.44 507.253 4240.44 541.915C4261.79 570.6 4291.05 634.546 4328.21 733.75C4366.16 831.76 4404.11 941.722 4442.07 1063.64V726.579C4442.07 694.307 4438.51 671 4431.39 656.658C4425.07 641.119 4416.76 633.35 4406.49 633.35C4399.37 633.35 4391.46 637.534 4382.77 645.9V633.35C4385.93 630.96 4406.49 609.445 4444.44 568.807C4492.67 518.607 4528.64 481.555 4552.36 457.65C4576.08 433.745 4592.69 421.195 4602.18 420V454.064L4586.76 450.479C4575.69 450.479 4568.57 457.65 4565.41 471.993C4562.25 485.141 4560.67 510.838 4560.67 549.086V1587.15C4560.67 1657.67 4568.97 1692.93 4585.57 1692.93C4591.11 1692.93 4596.64 1689.34 4602.18 1682.17V1694.72C4595.06 1700.7 4585.57 1710.26 4573.71 1723.41C4562.64 1735.36 4549.6 1749.7 4534.57 1766.44C4439.69 1871.62 4384.74 1925.4 4369.72 1927.79V1893.73C4372.09 1894.93 4375.65 1895.52 4380.39 1895.52C4397 1895.52 4411.23 1882.97 4423.09 1857.87C4435.74 1832.77 4442.07 1801.7 4442.07 1764.64V1610.46C4442.07 1542.33 4429.81 1438.94 4405.3 1300.29C4380.79 1161.65 4352.32 1030.17 4319.91 905.865C4287.49 780.365 4261 702.674 4240.44 672.793V1707.27C4240.44 1781.38 4248.75 1841.14 4265.35 1886.56C4282.74 1933.17 4303.3 1956.48 4327.02 1956.48V1990.54C4318.33 1989.35 4299.35 1970.82 4270.09 1934.97C4240.84 1900.3 4201.31 1851.3 4151.49 1787.95C4099.31 1722.21 4069.66 1686.36 4062.54 1680.38V1667.83Z" fill="white"/>
<path fill-rule="evenodd" clip-rule="evenodd" d="M2394.5 444.965C2388.97 444.089 2383.43 443.212 2377.9 442.336C2367.62 442.336 2360.9 447.155 2357.73 456.79C2354.57 466.425 2352.99 483.506 2352.99 508.032C2395.69 486.134 2436.01 467.301 2473.96 451.534C2512.71 435.767 2538.4 427.884 2551.06 427.884H2554.61C2586.24 428.76 2613.91 440.584 2637.63 463.359C2661.35 486.133 2673.21 529.493 2673.21 593.436V825.997C2670.84 838.26 2664.12 848.773 2653.05 857.532C2576.36 911.84 2525.36 949.067 2500.06 969.214C2535.64 978.849 2567.66 994.616 2596.12 1016.51C2625.38 1037.54 2645.94 1054.62 2657.8 1067.76C2669.66 1080.9 2688.63 1103.67 2714.72 1136.08V1146.59C2709.19 1141.34 2703.66 1138.71 2698.12 1138.71C2681.52 1138.71 2673.21 1164.55 2673.21 1216.23V1275.35C2673.21 1327.03 2681.52 1352.87 2698.12 1352.87C2703.66 1352.87 2709.19 1350.25 2714.72 1344.99V1354.19C2707.61 1358.57 2698.12 1365.58 2686.26 1375.21C2675.19 1383.97 2662.14 1394.48 2647.12 1406.74C2577 1463.71 2528.68 1500.11 2502.18 1515.93V1500.34C2514.89 1497.5 2526.04 1488.64 2535.64 1473.75C2548.29 1455.36 2554.61 1432.58 2554.61 1405.43V1128.2C2554.61 1092.28 2547.89 1061.19 2534.45 1034.91C2521.8 1008.63 2505.59 990.674 2485.82 981.039C2445.5 1014.32 2414.27 1047.17 2392.13 1079.58C2369.99 1111.12 2356.94 1146.59 2352.99 1186.01V1363.39C2352.99 1417.69 2361.29 1461.49 2377.9 1494.78C2389.15 1516.88 2401.73 1531.83 2415.63 1539.63V1557.82C2406.68 1551.15 2395.68 1541.96 2382.64 1530.25C2353.39 1504.85 2313.85 1468.94 2264.04 1422.51C2211.85 1374.34 2182.2 1348.06 2175.09 1343.68V1334.48C2183.79 1340.61 2191.69 1343.68 2198.81 1343.68C2209.09 1343.68 2217.39 1338.42 2223.72 1327.91C2230.83 1316.52 2234.39 1299 2234.39 1275.35V644.679C2234.39 621.029 2230.83 603.948 2223.72 593.436C2217.39 582.049 2209.09 576.355 2198.81 576.355C2191.69 576.355 2183.79 579.421 2175.09 585.553V576.355L2217.78 543.508C2319.78 462.922 2378.69 421.752 2394.5 420V444.965ZM2527.33 511.973C2515.47 511.973 2491.75 519.858 2456.17 535.624C2421.38 551.391 2386.99 569.785 2352.99 590.808V995.492C2375.13 973.594 2399.25 955.199 2425.34 940.308C2451.43 924.541 2486.61 905.708 2530.89 883.809C2538.8 879.43 2544.33 874.612 2547.5 869.357C2551.45 864.101 2553.43 856.655 2553.43 847.02L2554.61 584.239C2550.66 536.062 2541.57 511.973 2527.33 511.973Z" fill="white"/>
<path d="M2147.09 337.782V331.673L2163.38 326.582C2174.58 323.528 2175.6 320.473 2175.6 306.218V-6.87217C2149.63 -6.87217 2125.2 26.7278 2117.56 118.873H2112.98L2119.6 -19.0903H2269.78L2276.4 118.873H2271.31C2263.67 26.7278 2239.74 -6.87217 2213.27 -6.87217V306.218C2213.27 320.473 2214.29 323.528 2225.49 326.582L2241.78 331.673V337.782H2147.09Z" fill="white"/>
<path d="M2313.51 306.218V12.4733C2313.51 -1.78124 2313 -4.8358 2300.78 -7.89034L2285 -12.9812V-19.0903H2380.2V-12.9812L2363.4 -7.89034C2352.2 -4.8358 2350.67 -1.78124 2350.67 12.4733V113.273H2422.96V12.4733C2422.96 -1.78124 2421.94 -4.8358 2410.23 -7.89034L2393.43 -12.9812V-19.0903H2489.14V-12.9812L2472.85 -7.89034C2461.65 -4.8358 2460.12 -1.78124 2460.12 12.4733V306.218C2460.12 320.982 2461.65 323.528 2472.85 326.582L2489.14 331.673V337.782H2393.43V331.673L2410.23 326.582C2421.94 323.528 2422.96 320.473 2422.96 306.218V124.982H2350.67V306.218C2350.67 320.473 2352.2 323.528 2363.4 326.582L2380.2 331.673V337.273H2285V331.673L2300.78 326.582C2313 323.528 2313.51 320.473 2313.51 306.218Z" fill="white"/>
<path d="M2526.8 306.218V12.4733C2526.8 -1.78124 2525.78 -4.8358 2514.58 -7.89034L2497.78 -12.9812V-19.0903C2549.2 -19.0903 2601.13 -19.0903 2652.54 -19.0903L2664.76 118.873H2658.65C2647.96 11.9642 2618.44 -6.87217 2575.67 -6.87217H2564.47V113.273H2570.07C2598.07 113.273 2615.89 102.073 2619.96 53.2005H2626.07C2619.96 117.346 2618.43 222.728 2611.31 286.873H2605.71C2612.33 175.382 2611.82 124.982 2570.07 124.982H2564.47V325.564H2573.64C2625.05 325.055 2651.02 296.546 2661.71 156.546H2667.82L2660.18 337.273C2605.71 337.273 2551.74 337.273 2497.78 337.273V331.673L2514.58 326.582C2525.78 323.528 2526.8 320.473 2526.8 306.218Z" fill="white"/>
<path d="M2860.53 134.91C2968.62 319.248 2964.26 326.437 2660 336.835C2975.42 344.794 2989.42 352.496 3312.16 834.909C3012.27 352.496 3016.25 344.665 3353.5 333.754C3003.93 326.18 2990.19 319.12 2860.53 134.91Z" fill="white"/>
<path d="M1947.7 134.91C1839.61 319.248 1843.97 326.437 2148.23 336.835C1832.8 344.794 1818.81 352.496 1496.06 834.909C1795.96 352.496 1791.98 344.665 1454.73 333.754C1804.3 326.18 1818.04 319.12 1947.7 134.91Z" fill="white"/>
<path d="M1936.25 134.91C1828.15 319.248 1832.52 326.437 2136.77 336.835C1821.35 344.794 1807.35 352.496 1484.61 834.909C1784.5 352.496 1780.52 344.665 1443.27 333.754C1792.85 326.18 1806.58 319.12 1936.25 134.91Z" fill="white"/>
<path d="M3307.67 207.455C3348.23 326.947 3345.77 330.871 3211.09 333.224C3349.58 340.847 3354.95 345.107 3431.48 534.546C3364.7 345.331 3367.06 341.183 3508.91 338.941C3363.13 331.207 3357.76 327.171 3307.78 207.455H3307.67Z" fill="white"/>
<path d="M1491.78 207.455C1451.22 326.947 1453.68 330.871 1588.36 333.224C1449.87 340.847 1444.5 345.107 1367.97 534.546C1434.75 345.331 1432.39 341.183 1290.54 338.941C1436.32 331.207 1441.69 327.171 1491.67 207.455H1491.78Z" fill="white"/>
</mask>
<g mask="url(#mask1_105_1492)">
<g filter="url(#filter2_n_105_1492)">
<path d="M-216.363 -122.182H5045.09V2391.45H-216.363V-122.182Z" fill="url(#paint1_linear_105_1492)"/>
</g>
</g>
</g>
</g>
<defs>
<filter id="filter0_i_105_1492" x="-4" y="0" width="4606.18" height="2013.63" filterUnits="userSpaceOnUse" color-interpolation-filters="sRGB">
<feFlood flood-opacity="0" result="BackgroundImageFix"/>
<feBlend mode="normal" in="SourceGraphic" in2="BackgroundImageFix" result="shape"/>
<feColorMatrix in="SourceAlpha" type="matrix" values="0 0 0 0 0 0 0 0 0 0 0 0 0 0 0 0 0 0 127 0" result="hardAlpha"/>
<feOffset dx="-5" dy="14"/>
<feGaussianBlur stdDeviation="2"/>
<feComposite in2="hardAlpha" operator="arithmetic" k2="-1" k3="1"/>
<feColorMatrix type="matrix" values="0 0 0 0 1 0 0 0 0 1 0 0 0 0 1 0 0 0 1 0"/>
<feBlend mode="normal" in2="shape" result="effect1_innerShadow_105_1492"/>
</filter>
<filter id="filter1_n_105_1492" x="-216.363" y="-103.09" width="5261.45" height="2513.63" filterUnits="userSpaceOnUse" color-interpolation-filters="sRGB">
<feFlood flood-opacity="0" result="BackgroundImageFix"/>
<feBlend mode="normal" in="SourceGraphic" in2="BackgroundImageFix" result="shape"/>
<feTurbulence type="fractalNoise" baseFrequency="0.90909087657928467 0.90909087657928467" stitchTiles="stitch" numOctaves="3" result="noise" seed="2494" />
<feColorMatrix in="noise" type="luminanceToAlpha" result="alphaNoise" />
<feComponentTransfer in="alphaNoise" result="coloredNoise1">
<feFuncA type="discrete" tableValues="1 1 1 1 1 1 1 1 1 1 1 1 1 1 1 1 1 1 1 1 1 1 1 1 1 1 1 1 1 1 1 1 1 1 1 1 1 1 1 1 1 1 1 1 1 1 1 1 1 1 1 0 0 0 0 0 0 0 0 0 0 0 0 0 0 0 0 0 0 0 0 0 0 0 0 0 0 0 0 0 0 0 0 0 0 0 0 0 0 0 0 0 0 0 0 0 0 0 0 0 "/>
</feComponentTransfer>
<feComposite operator="in" in2="shape" in="coloredNoise1" result="noise1Clipped" />
<feFlood flood-color="rgba(0, 0, 0, 0.47)" result="color1Flood" />
<feComposite operator="in" in2="noise1Clipped" in="color1Flood" result="color1" />
<feMerge result="effect1_noise_105_1492">
<feMergeNode in="shape" />
<feMergeNode in="color1" />
</feMerge>
</filter>
<filter id="filter2_n_105_1492" x="-216.363" y="-122.182" width="5261.45" height="2513.63" filterUnits="userSpaceOnUse" color-interpolation-filters="sRGB">
<feFlood flood-opacity="0" result="BackgroundImageFix"/>
<feBlend mode="normal" in="SourceGraphic" in2="BackgroundImageFix" result="shape"/>
<feTurbulence type="fractalNoise" baseFrequency="0.90909087657928467 0.90909087657928467" stitchTiles="stitch" numOctaves="3" result="noise" seed="2494" />
<feColorMatrix in="noise" type="luminanceToAlpha" result="alphaNoise" />
<feComponentTransfer in="alphaNoise" result="coloredNoise1">
<feFuncA type="discrete" tableValues="1 1 1 1 1 1 1 1 1 1 1 1 1 1 1 1 1 1 1 1 1 1 1 1 1 1 1 1 1 1 1 1 1 1 1 1 1 1 1 1 1 1 1 1 1 1 1 1 1 1 1 0 0 0 0 0 0 0 0 0 0 0 0 0 0 0 0 0 0 0 0 0 0 0 0 0 0 0 0 0 0 0 0 0 0 0 0 0 0 0 0 0 0 0 0 0 0 0 0 0 "/>
</feComponentTransfer>
<feComposite operator="in" in2="shape" in="coloredNoise1" result="noise1Clipped" />
<feFlood flood-color="rgba(0, 0, 0, 0.47)" result="color1Flood" />
<feComposite operator="in" in2="noise1Clipped" in="color1Flood" result="color1" />
<feMerge result="effect1_noise_105_1492">
<feMergeNode in="shape" />
<feMergeNode in="color1" />
</feMerge>
</filter>
<linearGradient id="paint0_linear_105_1492" x1="4331.54" y1="56.1399" x2="72.0883" y2="2353.13" gradientUnits="userSpaceOnUse">
<stop offset="0.170367" stop-color="#E7CCA1"/>
<stop offset="0.412908" stop-color="#182732"/>
<stop offset="0.707345" stop-color="#294A48"/>
<stop offset="0.873482" stop-color="#451C2E"/>
</linearGradient>
<linearGradient id="paint1_linear_105_1492" x1="4247.72" y1="-59.1818" x2="318.818" y2="2892.91" gradientUnits="userSpaceOnUse">
<stop offset="0.0541129" stop-color="white"/>
<stop offset="0.370192" stop-color="#E7CCA1"/>
<stop offset="0.596154" stop-color="#E7CCA1"/>
<stop offset="1" stop-color="white"/>
</linearGradient>
</defs>
</svg>
