<svg width="225" height="225" viewBox="0 0 225 225" fill="none" xmlns="http://www.w3.org/2000/svg">
<path d="M19.5617 18.279H204.596C213.576 18.279 215.5 17.6376 217.424 10.5826L220.631 0H224.479V59.9679H220.631L217.424 49.706C215.5 42.3303 213.576 42.0096 204.596 42.0096H19.5617C10.5826 42.0096 8.65849 42.651 6.73438 49.706L3.52753 59.9679H9.12265e-06V0H3.52753L6.73438 10.5826C8.65849 17.6376 10.5826 18.279 19.5617 18.279Z" fill="white"/>
<path d="M19.5617 100.795H204.596C213.576 100.795 215.5 100.153 217.424 93.0982L220.631 82.5156H224.479V142.484H220.631L217.424 132.222C215.5 124.846 213.576 124.525 204.596 124.525H19.5617C10.5826 124.525 8.65849 125.167 6.73438 132.222L3.52753 142.484H9.12265e-06V82.5156H3.52753L6.73438 93.0982C8.65849 100.153 10.5826 100.795 19.5617 100.795Z" fill="white"/>
<path d="M19.5617 183.311H204.596C213.576 183.311 215.5 182.67 217.424 175.615L220.631 165.032H224.479V225H220.631L217.424 214.738C215.5 207.363 213.576 207.042 204.596 207.042H19.5617C10.5826 207.042 8.65849 207.683 6.73438 214.738L3.52753 225H9.12265e-06V165.032H3.52753L6.73438 175.615C8.65849 182.67 10.5826 183.311 19.5617 183.311Z" fill="white"/>
</svg>
