<svg width="2694" height="457" viewBox="0 0 2694 457" fill="none" xmlns="http://www.w3.org/2000/svg">
<path d="M3.53903e-07 357.5C3.66667 359.833 7 361 10 361C14.3333 361 17.8333 359 20.5 355C23.5 350.667 25 344 25 335V95C25 86 23.5 79.5 20.5 75.5C17.8333 71.1667 14.3333 69 10 69C7 69 3.66667 70.1667 3.53903e-07 72.5V69L18 56.5C61 25.8333 85.8333 10.1666 92.5 9.49998V19L86 18C81.3333 18 78.3333 20 77 24C75.6667 27.6667 75 34.3333 75 44C85 54 100 80 120 122C140 163.667 157.167 204.5 171.5 244.5C183.5 212.167 197.667 179.667 214 147C230.333 114.333 246.333 88 262 68L268.5 60C274.5 53 280.667 47.1666 287 42.5C297.333 33.8333 307.833 26.3333 318.5 20C329.5 13.6666 337.167 10.1666 341.5 9.49998V19L335 18C330.333 18 327.333 20 326 24C324.667 27.6667 324 34.8333 324 45.5V335C324 354.667 327.5 364.5 334.5 364.5C336.833 364.5 339.167 363.5 341.5 361.5V365C337.5 367 325.167 375.833 304.5 391.5C292.5 400.5 280.667 409 269 417C257.667 425.333 250.833 429.667 248.5 430V420.5C251.833 421.833 255.5 421 259.5 418C263.5 415 266.833 410.5 269.5 404.5C272.5 398.833 274 392.167 274 384.5V95C274 93 273.833 91 273.5 89C265.167 99.3333 255.333 121.167 244 154.5C232.667 187.833 222.667 222.833 214 259.5C205.667 295.833 201.5 323.167 201.5 341.5L172 335L142.5 341.5C142.5 322.5 138.5 293.833 130.5 255.5C122.5 216.833 113.167 180.333 102.5 146C91.8333 111.333 82.6667 89.5 75 80.5V368.5C75 389.167 78.5 405.833 85.5 418.5C92.8333 431.5 101.5 438 111.5 438V447.5C107.833 447.167 99.8333 442 87.5 432C75.1667 422.333 58.5 408.667 37.5 391C15.5 372.667 3 362.667 3.53903e-07 361V357.5ZM441.563 354C442.229 357.667 443.396 361.333 445.063 365C446.396 368 449.896 372.667 455.563 379C463.229 388.667 469.063 397.167 473.063 404.5C477.063 411.833 479.063 420.667 479.063 431C479.063 433.333 478.729 437.167 478.063 442.5C492.729 428.833 505.396 415.667 516.063 403C526.729 390.667 532.063 379.333 532.063 369C532.063 361.667 531.396 354.5 530.063 347.5C528.729 340.5 526.729 332.333 524.063 323C522.396 316 520.729 309 519.063 302C517.729 295 517.063 288.5 517.063 282.5C517.063 259.833 536.729 243.667 576.063 234L578.063 238C572.063 239.667 566.729 244.667 562.063 253C557.396 261 555.063 269.167 555.063 277.5C555.063 283.833 555.896 290.333 557.563 297C559.563 303.667 562.229 312 565.563 322C567.563 328 569.396 333.833 571.063 339.5C572.729 344.833 573.563 349.333 573.563 353C573.563 367.667 567.396 381 555.063 393C542.729 405.333 525.729 419 504.063 434C488.729 444.667 478.729 452.167 474.063 456.5H472.063C474.063 449.167 467.896 438.667 453.563 425C439.229 411.667 423.229 399 405.563 387C387.896 374.667 374.896 366 366.563 361V357.5C370.229 359.833 373.563 361 376.563 361C380.896 361 384.396 359 387.063 355C390.063 350.667 391.563 344 391.563 335V95C391.563 86 390.063 79.5 387.063 75.5C384.396 71.1667 380.896 69 376.563 69C373.563 69 370.229 70.1667 366.563 72.5V69L384.563 56.5C427.563 25.8333 452.396 10.1666 459.063 9.49998V19L452.563 18C447.896 18 444.896 20 443.563 24C442.229 27.6667 441.563 34.3333 441.563 44C461.563 35.3333 480.229 28 497.563 22C514.896 15.6666 526.563 12.5 532.563 12.5C541.229 12.5 548.563 16.6666 554.563 25C560.896 33 565.729 43.3333 569.063 56L566.063 58C559.729 49 550.396 44.5 538.063 44.5C529.729 44.5 515.896 47.8333 496.563 54.5C477.563 61.1667 459.229 68.6667 441.563 77V189L537.063 117.5V132C530.063 130 525.396 133 523.063 141C520.729 149 519.563 161.833 519.563 179.5C514.563 179.5 507.896 182.167 499.563 187.5C491.229 192.5 483.063 199.333 475.063 208C467.063 216.667 460.896 226 456.563 236H455.063C454.729 226.333 453.229 218.5 450.563 212.5C448.229 206.167 445.229 202 441.563 200V354ZM621.242 56.5C664.242 25.8333 689.076 10.1666 695.742 9.49998V19C693.409 18.6667 691.076 18.3333 688.742 18C684.409 18 681.576 19.8333 680.242 23.5C678.909 27.1666 678.242 33.6666 678.242 43C696.242 34.6666 713.242 27.5 729.242 21.5C745.576 15.5 756.409 12.5 761.742 12.5H763.242C776.576 12.8333 788.242 17.3333 798.242 26C808.242 34.6667 813.242 51.1667 813.242 75.5V164C812.242 168.667 809.409 172.667 804.742 176C772.409 196.667 750.909 210.833 740.242 218.5C755.242 222.167 768.742 228.167 780.742 236.5C793.076 244.5 801.742 251 806.742 256C811.742 261 819.742 269.667 830.742 282V286C828.409 284 826.076 283 823.742 283C816.742 283 813.242 292.833 813.242 312.5V335C813.242 354.667 816.742 364.5 823.742 364.5C826.076 364.5 828.409 363.5 830.742 361.5V365C827.742 366.667 823.742 369.333 818.742 373C814.076 376.333 808.576 380.333 802.242 385C762.242 414.333 739.076 429.333 732.742 430V420.5C733.742 420.833 735.242 421 737.242 421C744.242 421 750.242 417.5 755.242 410.5C760.576 403.5 763.242 394.833 763.242 384.5V279C763.242 265.333 760.409 253.5 754.742 243.5C749.409 233.5 742.576 226.667 734.242 223C717.242 235.667 704.076 248.167 694.742 260.5C685.409 272.5 679.909 286 678.242 301V368.5C678.242 389.167 681.742 405.833 688.742 418.5C696.076 431.5 704.742 438 714.742 438V447.5C711.076 447.167 703.076 442 690.742 432C678.409 422.333 661.742 408.667 640.742 391C618.742 372.667 606.242 362.667 603.242 361V357.5C606.909 359.833 610.242 361 613.242 361C617.576 361 621.076 359 623.742 355C626.742 350.667 628.242 344 628.242 335V95C628.242 86 626.742 79.5 623.742 75.5C621.076 71.1667 617.576 69 613.242 69C610.242 69 606.909 70.1667 603.242 72.5V69L621.242 56.5ZM678.242 228.5C687.576 220.167 697.742 213.167 708.742 207.5C719.742 201.5 734.576 194.333 753.242 186C756.576 184.333 758.909 182.5 760.242 180.5C761.909 178.5 762.742 175.667 762.742 172L763.242 72C761.576 53.6666 757.742 44.5 751.742 44.5C746.742 44.5 736.742 47.5 721.742 53.5C707.076 59.5 692.576 66.5 678.242 74.5V228.5ZM1052.19 273.5V335C1052.19 344 1053.52 350.667 1056.19 355C1059.19 359 1062.85 361 1067.19 361C1070.52 361 1073.85 359.833 1077.19 357.5V361C1068.85 366 1055.85 374.667 1038.19 387C1020.52 399 1004.52 411.667 990.188 425C975.854 438.667 969.688 449.167 971.688 456.5H969.688C963.688 451.5 954.521 444.5 942.188 435.5C920.854 420.167 904.188 406.167 892.188 393.5C880.521 381.167 874.688 367.667 874.688 353V125.5C874.688 116.5 873.188 110 870.188 106C867.521 101.667 864.021 99.5 859.688 99.5C856.688 99.5 853.354 100.667 849.688 103V99.5C856.021 95.8333 867.688 87.3333 884.688 74C902.021 60.3333 917.354 46.5 930.688 32.5C944.021 18.1667 949.688 7.33333 947.688 -1.3113e-05H949.688C956.021 5.66666 966.521 13.3333 981.188 23C1003.85 38.3333 1021.35 52 1033.69 64C1046.02 76 1052.19 89.1666 1052.19 103.5V118.5L1002.19 143.5V95.5C1002.19 83.1666 999.188 71.6666 993.188 61C987.521 50 981.854 41.6666 976.188 36C970.521 30 963.021 22.8333 953.688 14.5C954.688 20.5 955.188 26.1666 955.188 31.5C955.188 42.8333 953.354 52.8333 949.688 61.5C946.021 70.1666 941.021 79.1666 934.688 88.5C931.021 94.5 928.854 98.1667 928.188 99.5C925.854 104.167 924.688 108.5 924.688 112.5V361C924.688 378.667 929.021 394.333 937.688 408C946.688 422 956.188 433.5 966.188 442.5C965.521 439.5 965.188 435.333 965.188 430C965.188 419.333 967.354 409.667 971.688 401C976.021 392.667 981.854 384 989.188 375C993.521 369.333 996.688 364.667 998.688 361C1000.69 357 1001.85 353.667 1002.19 351C1002.52 348.333 1002.52 345.833 1002.19 343.5V298.5L1052.19 273.5ZM1101.99 357.5C1105.66 359.833 1108.99 361 1111.99 361C1116.33 361 1119.83 359 1122.49 355C1125.49 350.667 1126.99 344 1126.99 335V95C1126.99 86 1125.49 79.5 1122.49 75.5C1119.83 71.1667 1116.33 69 1111.99 69C1108.99 69 1105.66 70.1667 1101.99 72.5V69L1119.99 56.5C1162.99 25.8333 1187.83 10.1666 1194.49 9.49998V19L1187.99 18C1183.33 18 1180.33 20 1178.99 24C1177.66 27.6667 1176.99 34.8333 1176.99 45.5V214.5L1271.99 147V95C1271.99 86 1270.49 79.5 1267.49 75.5C1264.83 71.1667 1261.33 69 1256.99 69C1253.99 69 1250.66 70.1667 1246.99 72.5V69C1248.33 68.3333 1256.99 62.3333 1272.99 51C1293.33 37 1308.49 26.6666 1318.49 20C1328.49 13.3333 1335.49 9.83331 1339.49 9.49998V19L1332.99 18C1328.33 18 1325.33 20 1323.99 24C1322.66 27.6667 1321.99 34.8333 1321.99 45.5V335C1321.99 354.667 1325.49 364.5 1332.49 364.5C1334.83 364.5 1337.16 363.5 1339.49 361.5V365C1336.49 366.667 1332.49 369.333 1327.49 373C1322.83 376.333 1317.33 380.333 1310.99 385C1270.99 414.333 1247.83 429.333 1241.49 430V420.5C1242.49 420.833 1243.99 421 1245.99 421C1252.99 421 1258.99 417.5 1263.99 410.5C1269.33 403.5 1271.99 394.833 1271.99 384.5V157C1267.66 158.333 1264.66 162.833 1262.99 170.5C1261.66 178.167 1260.99 189.5 1260.99 204.5C1255.99 204.5 1248.83 207.167 1239.49 212.5C1230.16 217.5 1220.99 224.333 1211.99 233C1202.99 241.667 1196.33 251 1191.99 261H1190.49C1190.16 251.333 1188.66 243.5 1185.99 237.5C1183.66 231.167 1180.66 227 1176.99 225V368.5C1176.99 389.167 1180.49 405.833 1187.49 418.5C1194.83 431.5 1203.49 438 1213.49 438V447.5C1209.83 447.167 1201.83 442 1189.49 432C1177.16 422.333 1160.49 408.667 1139.49 391C1117.49 372.667 1104.99 362.667 1101.99 361V357.5ZM1382.55 56.5C1425.55 25.8333 1450.38 10.1666 1457.05 9.49998V19C1454.72 18.6667 1452.38 18.3333 1450.05 18C1445.72 18 1442.88 19.8333 1441.55 23.5C1440.22 27.1666 1439.55 33.6666 1439.55 43C1457.55 34.6666 1474.55 27.5 1490.55 21.5C1506.88 15.5 1517.72 12.5 1523.05 12.5C1536.05 12.5 1547.88 16.8333 1558.55 25.5C1569.22 34.1667 1574.55 50.8333 1574.55 75.5V335C1574.55 354.667 1578.05 364.5 1585.05 364.5C1587.38 364.5 1589.72 363.5 1592.05 361.5V365C1589.05 366.667 1585.05 369.333 1580.05 373C1575.38 376.333 1569.88 380.333 1563.55 385C1523.55 414.333 1500.38 429.333 1494.05 430V420.5C1495.05 420.833 1496.55 421 1498.55 421C1505.55 421 1511.55 417.667 1516.55 411C1521.55 404.333 1524.22 395.667 1524.55 385L1523.55 160.5C1519.55 166.5 1517.55 181.167 1517.55 204.5C1512.55 204.5 1505.88 207.167 1497.55 212.5C1489.22 217.5 1481.05 224.333 1473.05 233C1465.05 241.667 1458.88 251 1454.55 261H1453.05C1452.72 251.333 1451.22 243.5 1448.55 237.5C1446.22 231.167 1443.22 227 1439.55 225V368.5C1439.55 389.167 1443.05 405.833 1450.05 418.5C1457.38 431.5 1466.05 438 1476.05 438V447.5C1472.38 447.167 1464.38 442 1452.05 432C1439.72 422.333 1423.05 408.667 1402.05 391C1380.05 372.667 1367.55 362.667 1364.55 361V357.5C1368.22 359.833 1371.55 361 1374.55 361C1378.88 361 1382.38 359 1385.05 355C1388.05 350.667 1389.55 344 1389.55 335V95C1389.55 86 1388.05 79.5 1385.05 75.5C1382.38 71.1667 1378.88 69 1374.55 69C1371.55 69 1368.22 70.1667 1364.55 72.5V69L1382.55 56.5ZM1523.55 151L1523.05 68C1522.38 52.3333 1519.05 44.5 1513.05 44.5C1508.05 44.5 1498.05 47.5 1483.05 53.5C1468.38 59.5 1453.88 66.5 1439.55 74.5V214L1523.55 151ZM1616.86 357.5C1620.52 359.833 1623.86 361 1626.86 361C1631.19 361 1634.69 359 1637.36 355C1640.36 350.667 1641.86 344 1641.86 335V95C1641.86 86 1640.36 79.5 1637.36 75.5C1634.69 71.1667 1631.19 69 1626.86 69C1623.86 69 1620.52 70.1667 1616.86 72.5V69L1634.86 56.5C1677.86 25.8333 1702.69 10.1666 1709.36 9.49998V19L1702.86 18C1698.19 18 1695.19 19.8333 1693.86 23.5C1692.52 27.1666 1691.86 33.8333 1691.86 43.5C1700.86 51.5 1713.19 69.3333 1728.86 97C1744.86 124.333 1760.86 155 1776.86 189V95C1776.86 86 1775.36 79.5 1772.36 75.5C1769.69 71.1667 1766.19 69 1761.86 69C1758.86 69 1755.52 70.1667 1751.86 72.5V69C1753.19 68.3333 1761.86 62.3333 1777.86 51C1798.19 37 1813.36 26.6666 1823.36 20C1833.36 13.3333 1840.36 9.83331 1844.36 9.49998V19L1837.86 18C1833.19 18 1830.19 20 1828.86 24C1827.52 27.6667 1826.86 34.8333 1826.86 45.5V335C1826.86 354.667 1830.36 364.5 1837.36 364.5C1839.69 364.5 1842.02 363.5 1844.36 361.5V365C1841.36 366.667 1837.36 369.333 1832.36 373C1827.69 376.333 1822.19 380.333 1815.86 385C1775.86 414.333 1752.69 429.333 1746.36 430V420.5C1747.36 420.833 1748.86 421 1750.86 421C1757.86 421 1763.86 417.5 1768.86 410.5C1774.19 403.5 1776.86 394.833 1776.86 384.5V341.5C1776.86 322.5 1771.69 293.667 1761.36 255C1751.02 216.333 1739.02 179.667 1725.36 145C1711.69 110 1700.52 88.3333 1691.86 80V368.5C1691.86 389.167 1695.36 405.833 1702.36 418.5C1709.69 431.5 1718.36 438 1728.36 438V447.5C1724.69 447.167 1716.69 442 1704.36 432C1692.02 422.333 1675.36 408.667 1654.36 391C1632.36 372.667 1619.86 362.667 1616.86 361V357.5ZM1944.16 351.5C1944.83 354.167 1945.99 357.333 1947.66 361C1949.66 364.667 1952.83 369.333 1957.16 375C1964.49 384 1970.33 392.667 1974.66 401C1978.99 409.667 1981.16 419.333 1981.16 430C1981.16 435.333 1980.83 439.5 1980.16 442.5C1989.49 434.167 1996.99 427 2002.66 421C2008.33 415 2014.16 406.5 2020.16 395.5C2026.16 384.833 2029.16 373.333 2029.16 361L2027.66 68.5C2026.99 52.5 2023.66 44.5 2017.66 44.5C2012.66 44.5 2002.66 47.5 1987.66 53.5C1972.99 59.5 1958.49 66.5 1944.16 74.5V351.5ZM1887.16 56.5C1930.16 25.8333 1954.99 10.1666 1961.66 9.49998V19C1959.33 18.6667 1956.99 18.3333 1954.66 18C1950.33 18 1947.49 19.8333 1946.16 23.5C1944.83 27.1666 1944.16 33.6666 1944.16 43C1962.16 34.6666 1979.16 27.5 1995.16 21.5C2011.49 15.5 2022.33 12.5 2027.66 12.5C2040.66 12.5 2052.49 16.8333 2063.16 25.5C2073.83 34.1667 2079.16 50.8333 2079.16 75.5V353C2079.16 367.333 2072.99 380.5 2060.66 392.5C2048.33 404.5 2030.83 418.167 2008.16 433.5C1993.49 443.167 1982.99 450.833 1976.66 456.5H1974.66C1976.66 449.167 1970.49 438.667 1956.16 425C1941.83 411.667 1925.83 399 1908.16 387C1890.49 374.667 1877.49 366 1869.16 361V357.5C1872.83 359.833 1876.16 361 1879.16 361C1883.49 361 1886.99 359 1889.66 355C1892.66 350.667 1894.16 344 1894.16 335V95C1894.16 86 1892.66 79.5 1889.66 75.5C1886.99 71.1667 1883.49 69 1879.16 69C1876.16 69 1872.83 70.1667 1869.16 72.5V69L1887.16 56.5ZM2204.38 361C2203.04 361.667 2194.38 367.667 2178.38 379C2158.04 393 2142.88 403.333 2132.88 410C2122.88 416.667 2115.88 420.167 2111.88 420.5V411L2118.38 412C2123.04 412 2126.04 410 2127.38 406C2128.71 402.333 2129.38 395.167 2129.38 384.5V95C2129.38 86 2127.88 79.5 2124.88 75.5C2122.21 71.1667 2118.71 69 2114.38 69C2111.38 69 2108.04 70.1667 2104.38 72.5V69C2105.71 68.3333 2114.38 62.3333 2130.38 51C2150.71 37 2165.88 26.6666 2175.88 20C2185.88 13.3333 2192.88 9.83331 2196.88 9.49998V19L2190.38 18C2185.71 18 2182.71 20 2181.38 24C2180.04 27.6667 2179.38 34.8333 2179.38 45.5V335C2179.38 344 2180.71 350.667 2183.38 355C2186.38 359 2190.04 361 2194.38 361C2197.71 361 2201.04 359.833 2204.38 357.5V361ZM2381.74 265C2381.74 256.667 2376.9 249.167 2367.24 242.5C2357.57 235.5 2342.74 227.167 2322.74 217.5C2300.4 206.833 2283.4 197.333 2271.74 189C2260.07 180.333 2254.24 170.167 2254.24 158.5V125.5C2254.24 116.5 2252.74 110 2249.74 106C2247.07 101.667 2243.57 99.5 2239.24 99.5C2236.24 99.5 2232.9 100.667 2229.24 103V99.5C2235.57 95.8333 2247.24 87.3333 2264.24 74C2281.57 60.3333 2296.9 46.5 2310.24 32.5C2323.57 18.1667 2329.24 7.33333 2327.24 -1.3113e-05H2329.24C2335.57 5.66666 2346.07 13.3333 2360.74 23C2383.4 38.3333 2400.9 52 2413.24 64C2425.57 76 2431.74 89.1666 2431.74 103.5V118.5L2381.74 143.5V95.5C2381.74 83.1666 2378.74 71.6666 2372.74 61C2367.07 50 2361.4 41.6666 2355.74 36C2350.07 30 2342.57 22.8333 2333.24 14.5C2334.24 20.5 2334.74 26.1666 2334.74 31.5C2334.74 42.8333 2332.9 52.8333 2329.24 61.5C2325.57 70.1666 2320.57 79.1666 2314.24 88.5C2310.57 94.5 2308.4 98.1667 2307.74 99.5C2306.07 102.833 2305.07 106 2304.74 109C2304.4 112 2304.24 114.667 2304.24 117V143.5C2304.24 153.833 2309.4 162.667 2319.74 170C2330.07 177.333 2345.57 185.5 2366.24 194.5C2387.9 204.167 2404.24 213 2415.24 221C2426.24 228.667 2431.74 238.333 2431.74 250V335C2431.74 344 2433.07 350.667 2435.74 355C2438.74 359 2442.4 361 2446.74 361C2450.07 361 2453.4 359.833 2456.74 357.5V361C2448.4 366 2435.4 374.667 2417.74 387C2400.07 399 2384.07 411.667 2369.74 425C2355.4 438.667 2349.24 449.167 2351.24 456.5H2349.24C2343.24 451.5 2334.07 444.5 2321.74 435.5C2300.4 420.167 2283.74 406.167 2271.74 393.5C2260.07 381.167 2254.24 367.667 2254.24 353V285.5L2304.24 260.5V361C2304.24 378.667 2308.57 394.333 2317.24 408C2326.24 422 2335.74 433.5 2345.74 442.5C2345.07 439.5 2344.74 435.333 2344.74 430C2344.74 419.333 2346.9 409.667 2351.24 401C2355.57 392.667 2361.4 384 2368.74 375C2373.07 369.333 2376.24 364.667 2378.24 361C2380.24 357 2381.4 353.667 2381.74 351C2382.07 348.333 2382.07 345.833 2381.74 343.5V265ZM2556.54 354C2557.21 357.667 2558.38 361.333 2560.04 365C2561.38 368 2564.88 372.667 2570.54 379C2578.21 388.667 2584.04 397.167 2588.04 404.5C2592.04 411.833 2594.04 420.667 2594.04 431C2594.04 433.333 2593.71 437.167 2593.04 442.5C2607.71 428.833 2620.38 415.667 2631.04 403C2641.71 390.667 2647.04 379.333 2647.04 369C2647.04 361.667 2646.38 354.5 2645.04 347.5C2643.71 340.5 2641.71 332.333 2639.04 323C2637.38 316 2635.71 309 2634.04 302C2632.71 295 2632.04 288.5 2632.04 282.5C2632.04 259.833 2651.71 243.667 2691.04 234L2693.04 238C2687.04 239.667 2681.71 244.667 2677.04 253C2672.38 261 2670.04 269.167 2670.04 277.5C2670.04 283.833 2670.88 290.333 2672.54 297C2674.54 303.667 2677.21 312 2680.54 322C2682.54 328 2684.38 333.833 2686.04 339.5C2687.71 344.833 2688.54 349.333 2688.54 353C2688.54 367.667 2682.38 381 2670.04 393C2657.71 405.333 2640.71 419 2619.04 434C2603.71 444.667 2593.71 452.167 2589.04 456.5H2587.04C2589.04 449.167 2582.88 438.667 2568.54 425C2554.21 411.667 2538.21 399 2520.54 387C2502.88 374.667 2489.88 366 2481.54 361V357.5C2485.21 359.833 2488.54 361 2491.54 361C2495.88 361 2499.38 359 2502.04 355C2505.04 350.667 2506.54 344 2506.54 335V95C2506.54 86 2505.04 79.5 2502.04 75.5C2499.38 71.1667 2495.88 69 2491.54 69C2488.54 69 2485.21 70.1667 2481.54 72.5V69L2499.54 56.5C2542.54 25.8333 2567.38 10.1666 2574.04 9.49998V19L2567.54 18C2562.88 18 2559.88 20 2558.54 24C2557.21 27.6667 2556.54 34.3333 2556.54 44C2576.54 35.3333 2595.21 28 2612.54 22C2629.88 15.6666 2641.54 12.5 2647.54 12.5C2656.21 12.5 2663.54 16.6666 2669.54 25C2675.88 33 2680.71 43.3333 2684.04 56L2681.04 58C2674.71 49 2665.38 44.5 2653.04 44.5C2644.71 44.5 2630.88 47.8333 2611.54 54.5C2592.54 61.1667 2574.21 68.6667 2556.54 77V189L2652.04 117.5V132C2645.04 130 2640.38 133 2638.04 141C2635.71 149 2634.54 161.833 2634.54 179.5C2629.54 179.5 2622.88 182.167 2614.54 187.5C2606.21 192.5 2598.04 199.333 2590.04 208C2582.04 216.667 2575.88 226 2571.54 236H2570.04C2569.71 226.333 2568.21 218.5 2565.54 212.5C2563.21 206.167 2560.21 202 2556.54 200V354Z" fill="white"/>
</svg>
