<svg width="216" height="981" viewBox="0 0 216 981" fill="none" xmlns="http://www.w3.org/2000/svg">
<path d="M132.864 223.744C123.136 225.28 114.176 220.672 111.104 202.752C109.824 193.792 102.656 163.84 96.768 138.24L56.064 151.296C42.752 156.16 37.12 162.304 31.744 161.792C21.504 160.768 9.47203 153.344 9.47203 139.52C9.47203 133.632 10.752 132.608 13.568 134.912C20.736 140.544 33.024 137.984 40.448 136.448C47.616 134.912 70.144 128 92.928 121.088L89.6 106.496C88.32 99.584 85.504 90.112 82.688 80.128C73.472 83.2 61.952 87.296 52.736 91.136C42.496 95.232 41.728 98.048 34.816 97.536C27.392 97.024 13.568 88.576 9.98403 74.752C8.96003 71.424 12.032 71.424 14.336 72.704C18.944 75.264 29.696 73.216 40.192 70.912L76.8 61.696C72.448 48.384 68.352 36.608 66.56 32.256C61.696 19.456 59.392 16.384 50.688 16.384C47.104 16.384 49.152 10.24 52.224 7.16797C54.528 5.11996 61.44 -3.05176e-05 67.072 -3.05176e-05C77.568 -3.05176e-05 88.832 5.88797 94.976 12.8C101.376 19.968 93.696 16.384 98.56 39.168L102.656 55.04L113.152 51.968C139.264 44.032 134.144 35.072 146.944 36.608C157.696 37.632 167.424 40.448 171.264 47.104C175.36 53.504 167.168 62.464 158.208 61.696C150.784 60.928 127.488 66.816 107.264 72.448L118.784 113.408L144.896 105.472C171.264 97.792 162.048 90.624 180.736 92.416C191.744 93.184 201.984 96.768 206.08 102.912C210.176 109.056 203.008 116.48 189.44 116.48C176.64 116.224 146.432 123.904 123.648 130.304C131.328 157.44 139.52 184.064 144.896 199.936C148.992 212.48 143.36 222.208 132.864 223.744ZM35.328 467.2C29.952 468.48 28.672 465.152 33.536 463.616C65.28 452.096 100.352 442.368 131.328 396.544C149.248 370.176 158.976 322.56 157.952 305.408C157.696 300.288 158.208 296.192 153.6 295.424C150.272 295.168 150.016 294.656 153.088 291.84C155.648 289.792 163.584 284.672 172.544 287.744C184.576 291.84 194.304 300.288 198.656 306.944C205.568 317.184 196.608 312.576 192.512 327.168C188.672 341.504 175.104 381.44 145.408 412.928C112.64 448.256 78.336 458.496 35.328 467.2ZM58.112 364.032C49.408 364.032 44.032 360.704 35.328 337.92C32.256 329.984 27.648 324.352 22.272 321.024C18.688 318.72 18.432 317.184 23.808 316.928C30.976 316.416 41.984 319.488 51.2 323.328C63.744 328.704 72.96 335.36 72.96 348.16C72.96 359.68 64.256 364.032 58.112 364.032ZM111.872 342.016C102.4 342.016 96.768 336.384 91.136 319.232C87.296 308.48 83.712 302.08 78.336 299.264C75.52 297.728 73.984 295.68 79.616 295.424C87.04 294.912 96 295.424 105.728 300.032C120.064 306.944 124.928 316.672 124.928 326.144C124.928 336.64 119.808 342.016 111.872 342.016ZM6.40003 692.224C0.256029 693.504 2.86102e-05 689.152 5.88803 686.848C86.016 657.408 116.224 609.536 123.904 593.408C128.512 583.68 128.512 581.632 122.624 583.68C106.496 589.568 98.304 595.968 79.104 604.16C66.816 609.536 68.608 612.352 61.44 611.84C55.296 611.584 34.816 597.248 43.008 584.96C45.824 580.352 47.104 580.608 48.128 583.68C48.896 586.24 52.992 587.264 57.088 586.752C78.08 584.192 113.664 570.88 122.368 567.296C141.568 559.872 135.424 555.52 146.944 559.872C160.256 564.736 165.12 567.296 170.24 573.184C178.176 582.4 168.192 583.168 159.744 594.176C150.784 605.44 142.08 616.192 132.608 626.176C135.68 627.456 138.752 629.504 141.312 632.576C146.176 638.72 141.056 637.184 138.752 658.688C136.96 675.072 137.728 698.624 139.264 716.032C140.544 736.768 131.584 740.608 126.976 740.608C123.136 740.608 111.104 733.696 111.104 715.264C111.104 702.208 114.432 703.232 114.432 687.872C114.432 670.976 114.432 654.592 112.896 644.864C88.064 665.344 56.064 681.472 6.40003 692.224ZM198.912 679.424C190.464 679.424 179.968 673.792 176.896 659.2C173.824 644.864 160.256 633.088 149.504 626.176C147.2 624.64 148.992 624.384 151.552 624.384C158.976 624.128 182.272 626.432 190.976 630.528C210.176 639.744 215.808 650.752 215.808 662.528C215.808 674.304 207.616 679.424 198.912 679.424ZM129.792 545.024C118.272 545.024 115.456 538.112 107.264 528.64C99.584 519.68 87.808 513.792 83.456 512.512C79.616 511.488 79.616 510.208 84.736 508.416C91.136 506.624 100.608 505.088 116.48 506.624C129.792 507.904 143.872 514.304 143.872 530.176C143.872 540.16 135.424 545.024 129.792 545.024ZM33.024 980.736C19.712 980.736 9.47203 970.24 9.47203 957.44C9.47203 944.384 19.712 933.632 33.024 933.632C46.336 933.632 56.576 944.384 56.576 957.44C56.576 970.24 46.336 980.736 33.024 980.736Z" fill="white"/>
</svg>
