<svg width="712" height="106" viewBox="0 0 712 106" fill="none" xmlns="http://www.w3.org/2000/svg">
<path d="M15.6155 103.6H-0.000452995V40.368H14.4635L15.7435 48.56C19.7115 42.16 27.3915 38.448 35.9675 38.448C51.8396 38.448 60.0315 48.304 60.0315 64.688V103.6H44.4156V68.4C44.4156 57.776 39.1675 52.656 31.1035 52.656C21.5035 52.656 15.6155 59.312 15.6155 69.552V103.6ZM97.0435 103.6L61.7155 10.032H79.1235L99.6035 63.92C101.652 69.552 103.444 75.056 105.492 82.608C107.796 74.416 109.716 68.656 111.508 63.92L131.732 10.032H148.756L113.94 103.6H97.0435ZM165.933 27.696C160.557 27.696 156.333 23.472 156.333 18.224C156.333 12.976 160.557 8.87997 165.933 8.87997C171.053 8.87997 175.277 12.976 175.277 18.224C175.277 23.472 171.053 27.696 165.933 27.696ZM158.125 103.6V40.368H173.741V103.6H158.125ZM185.011 84.4H199.859C199.987 89.904 204.083 93.36 211.251 93.36C218.547 93.36 222.515 90.416 222.515 85.808C222.515 82.608 220.851 80.304 215.219 79.024L203.827 76.336C192.435 73.776 186.931 68.4 186.931 58.288C186.931 45.872 197.427 38.448 212.019 38.448C226.227 38.448 235.827 46.64 235.955 58.928H221.107C220.979 53.552 217.395 50.096 211.379 50.096C205.235 50.096 201.651 52.912 201.651 57.648C201.651 61.232 204.467 63.536 209.843 64.816L221.235 67.504C231.859 69.936 237.235 74.8 237.235 84.528C237.235 97.328 226.355 105.264 210.739 105.264C194.995 105.264 185.011 96.816 185.011 84.4ZM256.933 27.696C251.557 27.696 247.333 23.472 247.333 18.224C247.333 12.976 251.557 8.87997 256.933 8.87997C262.053 8.87997 266.277 12.976 266.277 18.224C266.277 23.472 262.053 27.696 256.933 27.696ZM249.125 103.6V40.368H264.741V103.6H249.125ZM277.163 71.856C277.163 52.144 291.371 38.576 310.955 38.576C330.539 38.576 344.747 52.144 344.747 71.856C344.747 91.568 330.539 105.136 310.955 105.136C291.371 105.136 277.163 91.568 277.163 71.856ZM292.779 71.856C292.779 83.376 300.203 91.184 310.955 91.184C321.707 91.184 329.131 83.376 329.131 71.856C329.131 60.336 321.707 52.528 310.955 52.528C300.203 52.528 292.779 60.336 292.779 71.856ZM372.741 103.6H357.125V40.368H371.589L372.869 48.56C376.837 42.16 384.517 38.448 393.093 38.448C408.965 38.448 417.157 48.304 417.157 64.688V103.6H401.541V68.4C401.541 57.776 396.293 52.656 388.229 52.656C378.629 52.656 372.741 59.312 372.741 69.552V103.6ZM553.511 31.536C553.511 37.168 549.671 41.136 544.039 41.136C538.023 41.136 533.671 36.272 533.671 28.592C533.671 17.84 540.839 9.51997 551.079 8.23997V14.384C545.575 15.408 541.735 18.864 541.735 23.344C542.759 22.96 543.911 22.704 545.319 22.704C549.927 22.704 553.511 26.032 553.511 31.536ZM632.391 103.472L567.495 103.6V91.312L598.087 65.456C610.759 54.704 614.983 48.56 614.983 39.6C614.983 28.976 609.223 22.96 599.367 22.96C589.127 22.96 582.727 30.128 582.599 42.16H566.343C566.471 21.68 579.527 8.36797 599.367 8.36797C619.335 8.36797 631.751 19.76 631.751 38.704C631.751 51.76 624.583 61.616 610.375 73.776L593.479 88.24H632.391V103.472ZM655.798 37.552L676.022 10.032H694.71L672.31 39.856C674.614 39.216 677.046 38.832 679.35 38.832C698.678 38.832 711.734 52.4 711.734 71.344C711.734 91.312 696.886 105.264 676.918 105.264C656.694 105.264 641.59 90.416 641.59 71.216C641.59 59.952 645.302 51.76 655.798 37.552ZM658.358 71.344C658.358 82.736 665.91 90.672 676.918 90.672C687.542 90.672 695.222 82.736 695.222 71.344C695.222 60.08 687.67 52.272 676.918 52.272C665.782 52.272 658.358 60.08 658.358 71.344Z" fill="white"/>
<path d="M461.536 51.8L428.216 -2.57492e-05H455.236L463.916 13.58C467.696 19.46 471.336 25.76 475.956 34.3L496.676 -2.57492e-05H523.136L490.376 51.8L523.136 103.6H496.256L489.396 92.82C484.216 84.56 480.856 78.4 475.816 69.16L453.556 103.6H426.956L461.536 51.8Z" fill="#018E4A"/>
</svg>
