<svg width="533" height="287" viewBox="0 0 533 287" fill="none" xmlns="http://www.w3.org/2000/svg">
<g filter="url(#filter0_d_674_258)">
<path d="M13.4522 169.529C14.5631 165.676 18.593 163.452 22.4511 164.562L152.481 201.989C156.349 203.103 158.537 207.14 157.798 211.092C157.705 211.589 157.618 212.087 157.535 212.585C156.881 216.538 153.464 219.582 149.46 219.329L10.8148 210.57C6.17818 210.277 3.00236 205.775 4.28728 201.317L13.4522 169.529Z" fill="#E8E8C6"/>
<path d="M88.2152 38.4569C85.0237 34.2009 87.3468 28.0757 92.5607 26.9974L127.218 19.8281C130.534 19.1424 133.886 20.8362 135.299 23.9096L194.509 152.691C196.158 156.277 194.613 160.49 191.248 162.558C191.082 162.66 190.915 162.763 190.75 162.867C187.303 165.022 182.686 164.433 180.248 161.183L88.2152 38.4569Z" fill="#E8E8C6"/>
<path d="M184.425 15.4145C183.61 11.4887 186.137 7.6451 190.069 6.832L222.372 0.153315C226.921 -0.786883 231.174 2.71806 231.114 7.35678L229.688 117.24C229.635 121.319 226.224 124.528 222.142 124.683C219.599 124.78 217.058 124.975 214.526 125.268C210.584 125.725 206.813 123.235 206.007 119.356L184.425 15.4145Z" fill="#E8E8C6"/>
<path d="M41.0872 73.6888C42.5612 68.5805 48.8534 66.7364 52.8599 70.2372L147.091 152.589C150.134 155.248 150.396 159.859 147.936 163.064C146.575 164.837 145.283 166.648 144.058 168.491C141.847 171.821 137.457 173.087 133.959 171.149L34.7099 116.155C31.7489 114.514 30.3157 111.048 31.2527 107.798L41.0872 73.6888Z" fill="#E8E8C6"/>
<path d="M213.938 141.856C215.283 137.959 220.796 137.875 221.995 141.719L232.213 174.413C232.76 176.119 234.369 177.265 236.196 177.243L271.043 176.698C271.057 176.698 271.072 176.699 271.086 176.703C271.101 176.707 271.118 176.711 271.133 176.711C275.215 176.664 276.82 181.835 273.462 184.266L244.915 205.019C243.409 206.123 242.748 208.013 243.286 209.74L253.504 242.434C254.702 246.279 250.172 249.559 246.903 247.225L219.028 227.352C218.415 226.915 217.71 226.666 216.988 226.604C215.439 226.47 214.149 227.617 213.062 228.728C168.345 274.399 113.059 292.289 79.4562 268.407C64.9571 258.102 56.4973 241.438 53.8533 221.232L91.0001 223.581C93.6907 228.893 97.3699 233.334 102.071 236.676C122.717 251.349 156.978 240.549 187.423 212.644C189.487 210.751 191.195 207.519 188.914 205.892L161.044 186.016C157.776 183.68 159.566 178.466 163.665 178.396L198.535 177.857C200.362 177.833 202.007 176.623 202.611 174.888L213.938 141.856Z" fill="#E8E8C6"/>
<path d="M93.1378 157.597C90.9745 163.574 89.2638 169.461 88.0094 175.178L58.7386 166.755C60.8823 158.964 63.6203 151.041 66.9378 143.08L93.1378 157.597Z" fill="#E8E8C6"/>
<path d="M238.846 23.3334C242.708 24.9182 246.377 26.9251 249.818 29.371C276.094 48.0459 282.547 87.5992 270.456 131.286V131.296C270.365 131.623 270.269 131.95 270.177 132.277C269.955 133.061 269.728 133.846 269.494 134.631C269.371 135.047 269.246 135.464 269.119 135.881C269.008 136.248 268.895 136.615 268.781 136.983C268.647 137.413 268.51 137.843 268.372 138.274C268.239 138.693 268.104 139.113 267.967 139.533C267.894 139.755 267.823 139.978 267.749 140.199C267.551 140.8 267.347 141.402 267.142 142.003C267.068 142.221 266.992 142.439 266.917 142.656C266.721 143.224 266.525 143.794 266.323 144.363C266.264 144.527 266.203 144.691 266.144 144.856C264.92 148.274 263.586 151.707 262.143 155.147C262.064 155.334 261.987 155.522 261.908 155.71C261.702 156.196 261.494 156.682 261.285 157.168C261.047 157.719 260.807 158.271 260.564 158.823C260.484 159.002 260.405 159.183 260.326 159.362C260.095 159.88 259.861 160.398 259.625 160.916C259.485 161.224 259.348 161.535 259.207 161.843C259.2 161.857 259.19 161.872 259.183 161.887C258.463 163.454 257.721 165.023 256.955 166.59C256.508 167.505 255.568 168.075 254.549 168.058L243.473 167.883C242.362 167.864 241.382 167.154 241.017 166.107L234.286 146.779C234.076 146.174 234.093 145.513 234.33 144.918C234.911 143.46 235.461 142.006 235.989 140.558C236.334 139.613 236.673 138.671 236.995 137.731C237.296 136.854 237.585 135.977 237.866 135.104C238.578 132.892 239.229 130.697 239.815 128.522C240.025 127.741 240.226 126.963 240.42 126.188C245.536 105.715 244.924 87.1678 238.187 74.0187L238.846 23.3334Z" fill="#E8E8C6"/>
<path d="M125.841 101.863C122.495 105.833 119.244 110.018 116.117 114.405C116.032 114.523 115.948 114.642 115.864 114.761L93.8564 95.5256C98.3548 89.3462 103.058 83.4872 107.921 77.968L125.841 101.863Z" fill="#E8E8C6"/>
<path d="M185.176 58.1002C178.377 60.379 171.36 63.7213 164.322 68.0328L151.465 40.065C160.474 34.2842 169.569 29.6062 178.539 26.1238L185.176 58.1002Z" fill="#E8E8C6"/>
<path d="M312.66 248.237C306.96 248.237 302.065 247.299 297.975 245.425C293.884 243.55 290.532 240.972 287.916 237.691C285.368 234.409 283.491 230.66 282.284 226.441C281.077 222.156 280.473 217.669 280.473 212.982V176.321H300.087V212.982C300.087 215.326 300.322 217.569 300.791 219.712C301.26 221.854 301.998 223.763 303.004 225.437C304.01 227.111 305.284 228.45 306.826 229.454C308.435 230.392 310.38 230.861 312.66 230.861C315.006 230.861 316.985 230.392 318.594 229.454C320.203 228.45 321.477 227.111 322.416 225.437C323.422 223.696 324.159 221.754 324.629 219.611C325.098 217.468 325.333 215.259 325.333 212.982V176.321H344.946V212.982C344.946 217.937 344.276 222.557 342.935 226.843C341.661 231.128 339.716 234.878 337.101 238.092C334.486 241.306 331.133 243.817 327.043 245.625C323.019 247.366 318.225 248.237 312.66 248.237Z" fill="#E8E8C6"/>
<path d="M401.193 230.559V247.634H350.298V176.321H400.287V193.396H369.912V203.44H395.862V219.31H369.912V230.559H401.193Z" fill="#E8E8C6"/>
<path d="M454.427 199.623C454.427 199.623 453.857 199.289 452.717 198.619C451.577 197.949 450.068 197.213 448.191 196.409C446.313 195.539 444.268 194.769 442.055 194.099C439.842 193.429 437.663 193.095 435.517 193.095C433.841 193.095 432.466 193.362 431.393 193.898C430.321 194.434 429.784 195.338 429.784 196.61C429.784 197.815 430.321 198.786 431.393 199.523C432.466 200.259 433.975 200.929 435.92 201.532C437.931 202.134 440.312 202.871 443.061 203.741C447.487 205.081 451.309 206.621 454.527 208.362C457.746 210.103 460.227 212.346 461.97 215.091C463.714 217.77 464.585 221.352 464.585 225.838C464.585 230.124 463.814 233.74 462.272 236.686C460.73 239.565 458.651 241.876 456.036 243.617C453.421 245.358 450.504 246.63 447.285 247.433C444.067 248.17 440.781 248.538 437.428 248.538C434.009 248.538 430.421 248.203 426.666 247.534C422.978 246.797 419.391 245.826 415.904 244.621C412.417 243.349 409.232 241.876 406.349 240.202L414.798 223.026C414.798 223.026 415.468 223.428 416.809 224.231C418.15 225.035 419.927 225.939 422.14 226.943C424.353 227.948 426.8 228.852 429.482 229.655C432.232 230.459 434.981 230.861 437.73 230.861C439.876 230.861 441.351 230.593 442.156 230.057C443.027 229.454 443.463 228.684 443.463 227.747C443.463 226.341 442.726 225.269 441.25 224.533C439.775 223.729 437.831 222.993 435.417 222.323C433.07 221.586 430.455 220.749 427.571 219.812C423.414 218.406 419.994 216.832 417.312 215.091C414.63 213.283 412.652 211.174 411.378 208.763C410.104 206.286 409.467 203.306 409.467 199.824C409.467 194.534 410.707 190.115 413.188 186.566C415.669 183.017 418.921 180.339 422.945 178.531C427.035 176.656 431.427 175.718 436.121 175.718C439.608 175.718 442.96 176.154 446.179 177.024C449.465 177.828 452.516 178.832 455.332 180.037C458.215 181.243 460.73 182.381 462.876 183.452L454.427 199.623Z" fill="#E8E8C6"/>
<path d="M529 193.396H508.481V247.634H488.868V193.396H468.249V176.321H529V193.396Z" fill="#E8E8C6"/>
<path d="M438.104 150.111V163.052H435.96V146.162H437.771L448.11 159.365V146.186H450.254V163.052H448.3L438.104 150.111Z" fill="#E8E8C6"/>
<path d="M469.348 161.149V163.052H457.865V146.162H469.133V148.065H460.009V153.537H467.942V155.321H460.009V161.149H469.348Z" fill="#E8E8C6"/>
<path d="M476.339 146.162L481.437 153.156L486.534 146.162H488.94L482.628 154.726L488.75 163.052H486.344L481.437 156.296L476.529 163.052H474.099L480.222 154.726L473.909 146.162H476.339Z" fill="#E8E8C6"/>
<path d="M501.583 163.171C500.233 163.171 499.098 162.941 498.177 162.481C497.256 162.005 496.517 161.371 495.961 160.578C495.405 159.769 495 158.857 494.746 157.842C494.492 156.827 494.365 155.781 494.365 154.702V146.162H496.509V154.702C496.509 155.527 496.589 156.336 496.747 157.129C496.922 157.906 497.2 158.604 497.581 159.222C497.962 159.841 498.478 160.332 499.13 160.697C499.781 161.062 500.591 161.244 501.559 161.244C502.544 161.244 503.362 161.062 504.013 160.697C504.664 160.316 505.18 159.817 505.561 159.198C505.943 158.564 506.213 157.858 506.371 157.081C506.546 156.304 506.633 155.511 506.633 154.702V146.162H508.777V154.702C508.777 155.844 508.642 156.931 508.372 157.961C508.118 158.976 507.705 159.872 507.134 160.649C506.562 161.427 505.816 162.045 504.895 162.505C503.989 162.949 502.885 163.171 501.583 163.171Z" fill="#E8E8C6"/>
<path d="M526.093 149.707C525.903 149.485 525.649 149.271 525.331 149.064C525.013 148.858 524.656 148.676 524.259 148.517C523.862 148.343 523.425 148.208 522.949 148.113C522.488 148.002 522.004 147.946 521.496 147.946C520.193 147.946 519.233 148.192 518.613 148.684C517.994 149.175 517.684 149.849 517.684 150.706C517.684 151.308 517.843 151.784 518.161 152.133C518.478 152.482 518.963 152.767 519.614 152.99C520.281 153.212 521.122 153.441 522.139 153.679C523.314 153.933 524.33 154.242 525.188 154.607C526.046 154.972 526.705 155.464 527.165 156.082C527.626 156.685 527.856 157.494 527.856 158.508C527.856 159.317 527.697 160.023 527.38 160.626C527.078 161.212 526.649 161.704 526.093 162.101C525.537 162.481 524.886 162.767 524.14 162.957C523.393 163.131 522.583 163.219 521.71 163.219C520.852 163.219 520.011 163.131 519.185 162.957C518.375 162.767 517.605 162.497 516.874 162.148C516.144 161.799 515.461 161.363 514.825 160.84L515.85 159.032C516.104 159.301 516.429 159.571 516.826 159.841C517.239 160.094 517.7 160.332 518.208 160.554C518.732 160.776 519.296 160.959 519.9 161.101C520.503 161.228 521.122 161.292 521.758 161.292C522.965 161.292 523.902 161.078 524.569 160.649C525.236 160.205 525.569 159.563 525.569 158.723C525.569 158.088 525.379 157.581 524.997 157.2C524.632 156.819 524.084 156.502 523.354 156.249C522.623 155.995 521.734 155.741 520.686 155.487C519.542 155.202 518.581 154.893 517.803 154.56C517.025 154.211 516.437 153.759 516.04 153.204C515.659 152.649 515.469 151.927 515.469 151.039C515.469 149.96 515.731 149.049 516.255 148.303C516.779 147.558 517.501 146.995 518.423 146.614C519.344 146.234 520.384 146.043 521.543 146.043C522.306 146.043 523.012 146.123 523.663 146.281C524.33 146.44 524.95 146.662 525.521 146.947C526.093 147.233 526.617 147.574 527.094 147.97L526.093 149.707Z" fill="#E8E8C6"/>
<path d="M13.4522 169.529C14.5631 165.676 18.593 163.452 22.4511 164.562L152.481 201.989C156.349 203.103 158.537 207.14 157.798 211.092C157.705 211.589 157.618 212.087 157.535 212.585C156.881 216.538 153.464 219.582 149.46 219.329L10.8148 210.57C6.17818 210.277 3.00236 205.775 4.28728 201.317L13.4522 169.529Z" fill="#E8E8C6"/>
<path d="M88.2152 38.4569C85.0237 34.2009 87.3468 28.0757 92.5607 26.9974L127.218 19.8281C130.534 19.1424 133.886 20.8362 135.299 23.9096L194.509 152.691C196.158 156.277 194.613 160.49 191.248 162.558C191.082 162.66 190.915 162.763 190.75 162.867C187.303 165.022 182.686 164.433 180.248 161.183L88.2152 38.4569Z" fill="#E8E8C6"/>
<path d="M184.425 15.4145C183.61 11.4887 186.137 7.6451 190.069 6.832L222.372 0.153315C226.921 -0.786883 231.174 2.71806 231.114 7.35678L229.688 117.24C229.635 121.319 226.224 124.528 222.142 124.683C219.599 124.78 217.058 124.975 214.526 125.268C210.584 125.725 206.813 123.235 206.007 119.356L184.425 15.4145Z" fill="#E8E8C6"/>
<path d="M41.0872 73.6888C42.5612 68.5805 48.8534 66.7364 52.8599 70.2372L147.091 152.589C150.134 155.248 150.396 159.859 147.936 163.064C146.575 164.837 145.283 166.648 144.058 168.491C141.847 171.821 137.457 173.087 133.959 171.149L34.7099 116.155C31.7489 114.514 30.3157 111.048 31.2527 107.798L41.0872 73.6888Z" fill="#E8E8C6"/>
<path d="M13.4522 169.529C14.5631 165.676 18.593 163.452 22.4511 164.562L152.481 201.989C156.349 203.103 158.537 207.14 157.798 211.092C157.705 211.589 157.618 212.087 157.535 212.585C156.881 216.538 153.464 219.582 149.46 219.329L10.8148 210.57C6.17818 210.277 3.00236 205.775 4.28728 201.317L13.4522 169.529Z" fill="#E8E8C6"/>
<path d="M88.2152 38.4569C85.0237 34.2009 87.3468 28.0757 92.5607 26.9974L127.218 19.8281C130.534 19.1424 133.886 20.8362 135.299 23.9096L194.509 152.691C196.158 156.277 194.613 160.49 191.248 162.558C191.082 162.66 190.915 162.763 190.75 162.867C187.303 165.022 182.686 164.433 180.248 161.183L88.2152 38.4569Z" fill="#E8E8C6"/>
</g>
<defs>
<filter id="filter0_d_674_258" x="0" y="0" width="533" height="287" filterUnits="userSpaceOnUse" color-interpolation-filters="sRGB">
<feFlood flood-opacity="0" result="BackgroundImageFix"/>
<feColorMatrix in="SourceAlpha" type="matrix" values="0 0 0 0 0 0 0 0 0 0 0 0 0 0 0 0 0 0 127 0" result="hardAlpha"/>
<feOffset dy="4"/>
<feGaussianBlur stdDeviation="2"/>
<feComposite in2="hardAlpha" operator="out"/>
<feColorMatrix type="matrix" values="0 0 0 0 0 0 0 0 0 0 0 0 0 0 0 0 0 0 0.25 0"/>
<feBlend mode="normal" in2="BackgroundImageFix" result="effect1_dropShadow_674_258"/>
<feBlend mode="normal" in="SourceGraphic" in2="effect1_dropShadow_674_258" result="shape"/>
</filter>
</defs>
</svg>
